<?xml version="1.0" encoding="utf-8"?>
<svg xmlns="http://www.w3.org/2000/svg" xmlns:xlink="http://www.w3.org/1999/xlink" width="552" height="373.01" viewBox="0 0 552 373.01"><defs><style>.cls-1,.cls-24,.cls-5{fill:none;}.cls-2{fill:url(#Neues_Verlaufsfeld_20);}.cls-3{fill:#633427;}.cls-4{fill:#3f9cd6;}.cls-5{stroke:#3f9cd6;stroke-width:0.25px;}.cls-18,.cls-19,.cls-24,.cls-5{stroke-miterlimit:10;}.cls-6{fill:url(#Unbenannter_Verlauf_15);}.cls-7{fill:url(#Unbenannter_Verlauf_71);}.cls-8{fill:#263d5d;}.cls-9{fill:#f6f7f8;}.cls-10,.cls-33{fill:#718095;}.cls-11{fill:#dfe2e7;}.cls-12{fill:#95a0b0;}.cls-13{fill:#ffd7b3;}.cls-14{fill:#70ddf0;}.cls-15{fill:#0a90c4;}.cls-16{fill:url(#Unbenannter_Verlauf_37);}.cls-17{fill:#054f97;}.cls-18{fill:#272e61;}.cls-18,.cls-19{stroke:#262d61;opacity:0.9;}.cls-18,.cls-19,.cls-24{stroke-width:0.5px;}.cls-19{fill:url(#Neues_Verlaufsfeld_20-2);}.cls-20{fill:#00c1f8;}.cls-21{fill:#e7f9fc;}.cls-22,.cls-25{opacity:0.8;}.cls-23,.cls-25,.cls-26{fill:#87e2f2;}.cls-24{stroke:#9fe8f5;stroke-linecap:round;opacity:0.29;}.cls-26,.cls-40{opacity:0.5;}.cls-27{fill:url(#Verlauf_Visual_Icontiefe);}.cls-28{fill:#001b41;}.cls-29{fill:#091f3a;}.cls-30{fill:#0dacd5;}.cls-31{clip-path:url(#clip-path);}.cls-32{fill:#40d2eb;}.cls-33{opacity:0.3;}.cls-34{fill:url(#Unbenannter_Verlauf_23);}.cls-35,.cls-36,.cls-37{fill:#fff;}.cls-36{opacity:0.15;}.cls-37{opacity:0.07;}.cls-38{fill:url(#Unbenannter_Verlauf_53);}.cls-39{fill:url(#Unbenannter_Verlauf_45);}.cls-41{fill:#5b4a14;}.cls-42{fill:url(#Unbenannter_Verlauf_53-2);}.cls-43{fill:url(#Unbenannter_Verlauf_45-2);}</style><linearGradient id="Neues_Verlaufsfeld_20" x1="452.81" y1="241.57" x2="475.64" y2="241.57" gradientTransform="matrix(-1, 0, 0, 1, 491.98, 0)" gradientUnits="userSpaceOnUse"><stop offset="0" stop-color="#3e4dda"/><stop offset="1" stop-color="#091471"/></linearGradient><linearGradient id="Unbenannter_Verlauf_15" x1="472.66" y1="256.36" x2="484.28" y2="256.36" gradientTransform="matrix(-1, 0, 0, 1, 491.98, 0)" gradientUnits="userSpaceOnUse"><stop offset="0" stop-color="#11c7e6"/><stop offset="1" stop-color="#3c9ddb"/></linearGradient><linearGradient id="Unbenannter_Verlauf_71" x1="-717.99" y1="431.72" x2="-717.34" y2="428.82" gradientTransform="matrix(-46.26, 3.33, -1.69, -23.46, -32406.65, 12711.38)" gradientUnits="userSpaceOnUse"><stop offset="0" stop-color="#fff" stop-opacity="0"/><stop offset="0.27" stop-color="#c8c6ba" stop-opacity="0.4"/><stop offset="0.43" stop-color="#c9c7bb" stop-opacity="0.42"/><stop offset="0.62" stop-color="#cac9c0" stop-opacity="0.48"/><stop offset="0.81" stop-color="#cdccc7" stop-opacity="0.57"/><stop offset="1" stop-color="#d0d0d0" stop-opacity="0.7"/></linearGradient><linearGradient id="Unbenannter_Verlauf_37" x1="256.94" y1="218.31" x2="219.18" y2="418.38" gradientTransform="translate(-6.49 -165.64) rotate(12.77)" gradientUnits="userSpaceOnUse"><stop offset="0.49" stop-color="#04549d"/><stop offset="0.65" stop-color="#055098"/><stop offset="0.82" stop-color="#07458b"/><stop offset="1" stop-color="#0b3476"/></linearGradient><linearGradient id="Neues_Verlaufsfeld_20-2" x1="-86.37" y1="14.75" x2="-22.79" y2="14.75" gradientTransform="translate(224.15 73) rotate(30)" xlink:href="#Neues_Verlaufsfeld_20"/><linearGradient id="Verlauf_Visual_Icontiefe" x1="1385.41" y1="1265.05" x2="1394.06" y2="1265.05" gradientTransform="matrix(0.36, -0.53, 0.7, 1.66, -1203.78, -1273.44)" gradientUnits="userSpaceOnUse"><stop offset="0" stop-color="#e7f9fc" stop-opacity="0"/><stop offset="1" stop-color="#28cce8" stop-opacity="0.5"/></linearGradient><clipPath id="clip-path"><path class="cls-1" d="M176.87,222.57S135.21,251,109.71,257.14c0,0-35,8.69-62.63-11.52-4-3-21-16.24-21-48.31l1.69-69.8s.31-5.28,8.68-5.36,34.76-.66,45.42,29.52C88.35,170.17,92,208,98.66,228.56c2,6.32,6.56,12.61,22.27,11.08,26.08-2.55,53.39-23.1,56.23-25.36C178,213.59,181.63,218.45,176.87,222.57Z"/></clipPath><linearGradient id="Unbenannter_Verlauf_23" x1="252.79" y1="273.15" x2="501.32" y2="273.15" gradientTransform="matrix(0.15, 0.58, -1.75, -0.14, 857.63, 68.63)" gradientUnits="userSpaceOnUse"><stop offset="0" stop-color="#2581c4"/><stop offset="0.97" stop-color="#2581c4" stop-opacity="0.2"/><stop offset="1" stop-color="#2581c4" stop-opacity="0"/></linearGradient><linearGradient id="Unbenannter_Verlauf_53" x1="3251.79" y1="532.14" x2="3238.34" y2="555.43" gradientTransform="matrix(0.87, -0.5, 1, 0.58, -3057.23, 1605.53)" gradientUnits="userSpaceOnUse"><stop offset="0" stop-color="#e7f9fc"/><stop offset="0.1" stop-color="#e3ead9"/><stop offset="0.28" stop-color="#dbd09c"/><stop offset="0.46" stop-color="#d5ba69"/><stop offset="0.62" stop-color="#d0a841"/><stop offset="0.77" stop-color="#cc9c24"/><stop offset="0.9" stop-color="#ca9513"/><stop offset="1" stop-color="#c9920d"/></linearGradient><linearGradient id="Unbenannter_Verlauf_45" x1="3255.18" y1="528.33" x2="3241.74" y2="551.62" gradientTransform="matrix(0.87, -0.5, 1, 0.58, -3057.23, 1605.53)" gradientUnits="userSpaceOnUse"><stop offset="0" stop-color="#f7ea83"/><stop offset="1" stop-color="#f7b84a"/></linearGradient><linearGradient id="Unbenannter_Verlauf_53-2" x1="3260.87" y1="524.27" x2="3247.42" y2="547.57" xlink:href="#Unbenannter_Verlauf_53"/><linearGradient id="Unbenannter_Verlauf_45-2" x1="3264.27" y1="520.47" x2="3250.82" y2="543.76" xlink:href="#Unbenannter_Verlauf_45"/></defs><title>Konfigurieren-cloud-server</title><g id="Ebene_4" data-name="Ebene 4"><ellipse class="cls-2" cx="27.76" cy="241.57" rx="11.42" ry="6.73"/><ellipse class="cls-3" cx="27.76" cy="246.51" rx="11.42" ry="6.73"/><path class="cls-4" d="M39.47,241.57v21.31a5.7,5.7,0,0,1-2.73,5c-2.94,1.75-5.13,2.81-8.45,2.81a22.11,22.11,0,0,1-7.38-1.06c-1.63-.6-4.84-1.74-4.83-5.25,0-4.55,0-22.58,0-22.58s1.28,6.78,11.64,6.78C38.88,248.59,39.47,241.57,39.47,241.57Z"/><path class="cls-5" d="M16.34,241.57c0,3.72,5.12,6.89,11.43,6.89s11.4-3.17,11.4-6.89-5.11-6.72-11.41-6.72S16.34,237.86,16.34,241.57Z"/><path class="cls-6" d="M16.91,246.92a13.67,13.67,0,0,0-8.52,8.32c-3.07,8.07,5,10.76,6.8,10.54a23.48,23.48,0,0,0,4.13-1.12v-3.22s-1.15-.87-2.54-1.71c-.44.16-2.71,1.67-3.13.71a6,6,0,0,1,.78-4.81c1.75-2.65,3.1-3.65,4.89-4.09,0-1.08,0-3.24,0-3.24Z"/><path id="smoke" class="cls-7" d="M110.92,183.61Q133.14,215.44,95,209.05c-38.1-6.4-39.81-5.79-26.27,4.89s-26.93-1-18.22,5.43-29.37,5.45-24.25,14q5.13,8.55-.94,5.68-5.79-11.06,2.22-16c8-5-10.24-12.67,5.12-16.81S22,193.3,39.3,191.49Q56.57,189.69,110.92,183.61Z"/><polygon class="cls-8" points="295.99 260.3 457.61 167 295.99 73.69 134.38 167 295.99 260.3"/><polygon class="cls-9" points="295.99 188.21 457.61 94.9 295.99 1.59 134.38 94.9 295.99 188.21"/><polygon class="cls-10" points="295.99 244.2 457.61 150.9 457.62 94.91 296 188.21 295.99 244.2"/><polygon class="cls-11" points="295.99 244.2 134.37 150.89 134.38 94.91 296 188.21 295.99 244.2"/><path class="cls-8" d="M313.56,214l82.77-47.79c3.62-2.08,6.58-7.74,6.58-12.56h0c0-4.82-3-7.06-6.58-5l-82.77,47.79c-3.62,2.09-6.58,7.74-6.58,12.56h0C307,213.81,309.94,216,313.56,214Z"/><path class="cls-12" d="M284.51,227.45h0c1.05.61,1.92,0,1.92-1.45V198.45a4.63,4.63,0,0,0-1.92-3.66h0c-1.05-.6-1.91.05-1.91,1.45v27.55A4.6,4.6,0,0,0,284.51,227.45Z"/><path class="cls-12" d="M276.64,223.85h0c1.05.61,1.91,0,1.91-1.45V194.85a4.62,4.62,0,0,0-1.91-3.66h0c-1.05-.6-1.92.05-1.92,1.45v27.55A4.61,4.61,0,0,0,276.64,223.85Z"/><path class="cls-12" d="M268.56,219.19h0c1.05.6,1.91-.05,1.91-1.45V190.19a4.6,4.6,0,0,0-1.91-3.66h0c-1.06-.61-1.92,0-1.92,1.45v27.55A4.6,4.6,0,0,0,268.56,219.19Z"/><ellipse class="cls-13" cx="436.36" cy="135" rx="5.97" ry="3.44" transform="translate(101.26 445.4) rotate(-60)"/><ellipse class="cls-14" cx="425.37" cy="141" rx="5.97" ry="3.44" transform="translate(90.57 438.88) rotate(-60)"/><path class="cls-8" d="M174.69,213.56s-23.25-42.95-99.41-24.16c0,0-40.59,23.59-26.85,36.5S122.12,264.56,174.69,213.56Z"/><path class="cls-11" d="M24.42,347.37C-4.18,331-4.25,304.2,24.27,287.73L57,268.86c28.52-16.47,75.27-16.58,103.87-.26L180,279.53c28.61,16.33,28.67,43.17.15,59.64L147.42,358c-28.52,16.47-75.26,16.58-103.87.25Z"/><path class="cls-8" d="M37.07,306.84h0c-1.4-.56-2.28-1.72-1.95-2.59l22.29-65.56c.33-.87,3.16,1.08,4.57,1.64h0c1.41.56,5.3,3.81,5,4.69L40.2,306.27C39.88,307.14,38.48,307.39,37.07,306.84Z"/><path class="cls-8" d="M172.37,302.32l0,0c1.41-.55,2.28-1.71,2-2.58l-22.3-65.56c-.33-.87-3.16,1.08-4.57,1.64h0c-1.4.56-5.3,3.81-5,4.68l26.76,61.26C169.56,302.62,171,302.87,172.37,302.32Z"/><path class="cls-8" d="M104.28,346.73h0c-2,.25-3.77-.57-3.85-1.82L91.59,252c-.08-1.26,4.51-.77,6.56-1h0c2-.25,8.67,1.11,8.75,2.37l.9,90.66C107.92,345.27,106.33,346.48,104.28,346.73Z"/><path class="cls-15" d="M238.28,119.35c5.13-15,5-25.37,3.16-30.88s-10.23-4.7-10.58-2.18c-.23,1.66-3.94,26.09-3.94,26.09Z"/><path class="cls-15" d="M231.64,125.43s17.48-12.43,19.1-12c5.07-2.44,10,4.93,8.06,9.4-1.7,1.57-8.1,7.68-12.44,10.87-.56.41-8.77,8.5-15.11,5.94S231.64,125.43,231.64,125.43Z"/><path class="cls-16" d="M113,160.68s10.21-4.21,56.31-23.54c4.38-1.84,68.19-15,68.19-15,2.55,1.12,4.13,13.08,1.36,16.8,0,0-58.3,20-62.2,20.93s-55.28,26.79-55.28,26.79S112.78,165.11,113,160.68Z"/><path class="cls-17" d="M123.11,176.59c-4.15,2.33,22.53,35.84,22.53,35.84s26-26,42.91-47.63c15.89-19.66,23.92-17.8,48.34-42.67,7.32-11.39-7.24-20.76-12.41-10.32,0,0-13.33,7.54-36,21.6-2.82,1.75-12.07,7.25-15.11,9.52-7.55,5.63-12.59,9.14-19.1,13.36C142.35,164,134.57,170.14,123.11,176.59Z"/><path class="cls-18" d="M185,94.32,154.8,76.57a4.66,4.66,0,0,1-2-3.72V23.71c0-1.43,3.5-1.94,4.58-1.32L186.6,40.92a4.66,4.66,0,0,1,2,3.72v47C188.55,93.08,186.1,94.94,185,94.32Z"/><path class="cls-19" d="M184.2,94.08,154.82,76.82a4.68,4.68,0,0,1-1.91-3.73V24.37c0-1.44.85-2.1,1.91-1.47l29.38,19a4.71,4.71,0,0,1,1.91,3.73v47C186.11,94,185.25,94.7,184.2,94.08Z"/><path class="cls-20" d="M169.93,44.63c-4-2.4-7.22-.54-7.28,4.14s3.09,10.44,7,12.83,7.22.54,7.28-4.14A16.32,16.32,0,0,0,169.93,44.63Zm-.22,16.09a14.68,14.68,0,0,1-6.32-11.5c.06-4.19,3-5.85,6.52-3.71A14.68,14.68,0,0,1,176.23,57C176.17,61.2,173.24,62.87,169.71,60.72Z"/><polygon class="cls-20" points="168.75 56.84 167.23 55.94 167.23 47.66 168.75 48.55 168.75 56.84"/><polygon class="cls-20" points="171.71 58.57 170.18 57.68 170.18 49.4 171.71 50.29 171.71 58.57"/><path class="cls-20" d="M164.56,64a3.14,3.14,0,0,0-.37-1.5,2.59,2.59,0,0,0-1-1.07c-.44-.27-.78-.32-1-.16s-.37.52-.37,1.07a3.27,3.27,0,0,0,.17,1,2.94,2.94,0,0,0,.48.91,2.6,2.6,0,0,0,.72.65q.66.39,1,.15C164.44,64.93,164.56,64.57,164.56,64Zm-1.38.35a1.75,1.75,0,0,1-.74-1.63,1.14,1.14,0,0,1,.18-.75c.11-.13.3-.12.56,0a1.71,1.71,0,0,1,.74,1.61C163.92,64.41,163.68,64.65,163.18,64.36Zm4.66,1.12v2.21l-.63-.37V65.23a1.54,1.54,0,0,0-.14-.67,1.09,1.09,0,0,0-.43-.45c-.26-.16-.45-.18-.57-.08s-.19.38-.19.8v1.69l-.62-.38V62.75l.48.3.09.49,0,0a.41.41,0,0,1,.37-.15,1.2,1.2,0,0,1,.54.2A2,2,0,0,1,167.84,65.48Zm1,2.84L168.3,68l1.44-3.62.58.36Z"/><path class="cls-21" d="M173.39,69.34c0,.56-.12.91-.37,1.08s-.58.11-1-.15a2.76,2.76,0,0,1-.72-.65,3.05,3.05,0,0,1-.48-.91,3.32,3.32,0,0,1-.17-1c0-.55.12-.91.37-1.07s.58-.11,1,.15a2.67,2.67,0,0,1,1,1.08A3.14,3.14,0,0,1,173.39,69.34Zm-2.12-1.28a1.75,1.75,0,0,0,.74,1.62c.5.3.74.06.74-.72a1.7,1.7,0,0,0-.74-1.61c-.26-.16-.45-.17-.56,0A1.17,1.17,0,0,0,171.27,68.06Z"/><path class="cls-21" d="M175.57,69.51l-.71-.43v2.84l-.62-.37V68.7l-.48-.28v-.34l.48.07v-.22q0-.6.24-.75c.16-.09.41,0,.74.16a3.25,3.25,0,0,1,.64.51l-.16.45a2.17,2.17,0,0,0-.44-.35c-.14-.08-.24-.1-.31,0a.58.58,0,0,0-.09.39v.22l.71.43Zm2,1.18-.72-.43v2.85l-.62-.38V69.89l-.48-.29v-.34l.48.07v-.22c0-.4.08-.65.25-.75s.41,0,.74.16a3.25,3.25,0,0,1,.64.51l-.16.45a3,3,0,0,0-.44-.35c-.14-.08-.24-.09-.31,0a.6.6,0,0,0-.09.4v.22l.71.43Z"/><g class="cls-22"><ellipse id="Oval" class="cls-23" cx="154.72" cy="26.35" rx="0.38" ry="0.74" transform="translate(-1.45 41.96) rotate(-15.37)"/><ellipse id="Oval-2" data-name="Oval" class="cls-23" cx="156.09" cy="27.23" rx="0.38" ry="0.74" transform="translate(-1.63 42.35) rotate(-15.37)"/><ellipse id="Oval-3" data-name="Oval" class="cls-23" cx="157.5" cy="28.13" rx="0.38" ry="0.74" transform="translate(-1.82 42.76) rotate(-15.37)"/></g><line class="cls-24" x1="156.78" y1="31.91" x2="161" y2="34.61"/><line class="cls-24" x1="162.39" y1="35.52" x2="165.2" y2="37.31"/><line class="cls-24" x1="166.61" y1="38.21" x2="172.24" y2="41.8"/><line class="cls-24" x1="173.65" y1="42.69" x2="177.87" y2="45.38"/><line class="cls-24" x1="179.28" y1="46.28" x2="182.1" y2="48.07"/><ellipse id="Oval-4" data-name="Oval" class="cls-25" cx="155.92" cy="74" rx="0.28" ry="0.54" transform="translate(-14.04 43.98) rotate(-15.37)"/><ellipse id="Oval-5" data-name="Oval" class="cls-26" cx="156.71" cy="74.5" rx="0.28" ry="0.54" transform="translate(-14.14 44.21) rotate(-15.37)"/><ellipse id="Oval-6" data-name="Oval" class="cls-26" cx="157.54" cy="75.03" rx="0.28" ry="0.54" transform="translate(-14.25 44.44) rotate(-15.37)"/><path class="cls-27" d="M182.38,89.92l-.66-1-.27.46-.66-1-.26.46-.65-1-.27.46-.66-1-.26.45-.66-1-.26.46-.65-1-.27.46L176,85.1a1.33,1.33,0,0,1-.2-.65c0-.16.12-.13.25.08l.49.77.26-.46.65,1,.27-.45.65,1,.27-.46.65,1,.27-.46.65,1,.27-.46.66,1,.26-.46.66,1,.2-.34c.05-.08.19,0,.31.28a.91.91,0,0,1,.11.59Z"/><path class="cls-13" d="M129.13,78.53c3.74-2.72,5.68-4.33,5.8-4.81.19-.73,10.78-20.29,16.48-20.36.33,0,.58.06.69.26.37.71,0,6.11.1,6.42.49,2.3,2.23,4.24,6.88,4,9.45-.48-5.6,8.75-8.68,10.11s-4.83,7.68-9.22,7l-7.6,5.95Z"/><path class="cls-13" d="M98.4,32.23q5.2,20.76,3.47,21.47t-1.73,4.55L95.52,70.76a7.94,7.94,0,0,1-7.44,5.18H84.53l2.41,18.29H64.83l4.37-31L84.53,34.6Z"/><path class="cls-13" d="M158.76,102.15q.53-6.93.09-7.54c-.44-.62-4.95-12.87-1.31-17.25a29.81,29.81,0,0,1,9.58-7.42Q176.48,80.6,175,85.45t-6.46,9.23l-.38,9.65Z"/><path class="cls-17" d="M54.71,201.07c3.62,11.05,16.2,26.16,23.52,30.25,4.4,2.45,11.72,7.59,23.22,7.63,11,0,19-5,24.6-10.08,6-5.39,8.4-7.65,21.22-17.71,3.06-2.41,18.74-26.6,23-31.2,9-9.69,17.29-22.27,18.26-25.82,4.16-15,4.45-19.82-1.53-17.38-11.88,4.84-30.6,20.19-41.83,26.3-1.69.93-17.43,11.88-23.94,14.05-3.22,1.08-18-2.43-23.83,2.14-7.79,6.11-.88,7.28-7.18,9.64C76.17,194.16,53.08,196.12,54.71,201.07Z"/><path class="cls-28" d="M55.79,85.87,69,116.34a13.07,13.07,0,0,0,17.19,6.82c.66-.28,15.52-1.51,15.06-4.26l39.3-31.77c10.13-7.86,5.21-7.43,2.61-10.91-4.77-6.4-9-5.85-10.65-2.81L104.85,89.58C103.75,90.22,87,100,86.4,98.86c-.1-.17-7.52-2.64-1.35-2.79C69.53,82,55.79,85.87,55.79,85.87Z"/><path class="cls-28" d="M117,114.32c-6-4.89-15.85-11.2-26.64-17.44-.42-.25.9-7.78-2.47-8.36-12.22-2.08-15.1-3.2-17.51-4.56s-4.32-2.54-3.1-6.75c0-.15.57-1.56-.15-1.46S65.21,77.64,64,78c-1.51.42-3-.66-4.47-1.24-6-2.44-10.53,3-13.63,11.82,0,0-2.14,13.49-.92,23.71s7.54,40.22,7.87,47.58,1.83,41.23,1.83,41.23c15.58,30.5,30.25,31.47,42.61,31.47s37.22-11.68,35.59-34.26l-13.44-24.39-9.94-30.75s15.1,1.52,29.85,1.62c12.26,1.78,22.1-1,30.93-5.07,2.43-1.12,2.83-11.24,2.43-21.21l1.51-19.73c-1-4,.92-8.59-2.77-10.88S159.39,89,157.11,92.62l-3.82,29.6c-.68,1.08-1.51.71-3.18.73C149.92,123,128.9,126.38,117,114.32Z"/><path class="cls-28" d="M85.75,12.94Q60.56,15.18,59.22,26.27C57.87,37.38,51.11,33.79,53.36,44S60,72,68,72,86.5,58.38,83.65,51.62c-4.77-11.32,2.95-11.4,3.72-5.85s-1.82,24.37,0,29.23q1.81,4.86,9.33,1.33,6.18-18.4,2.85-20.39c-3.33-2-8.77,3.48-9-1.49q-.19-5,2.05-17.82Q110.08,33,102.6,23T85.75,12.94Z"/><g id="stroke-2"><path class="cls-29" d="M121.38,177.81c2.84-2,5.75-3.85,8.74-5.61l4.52-2.55c1.49-.89,2.94-1.84,4.38-2.79,5.76-3.84,11.35-7.94,16.93-12l8.39-6.14c2.8-2,5.75-3.89,8.66-5.75s5.86-3.7,8.83-5.5,6-3.45,8.87-5.4c-2.81,2-5.78,3.83-8.73,5.65s-5.85,3.69-8.75,5.59c-5.85,3.72-11.4,7.82-17,11.88s-11.24,8.11-17,11.91c-1.46.93-2.94,1.84-4.45,2.69s-3.05,1.64-4.55,2.51C127.16,174,124.24,175.86,121.38,177.81Z"/></g><path class="cls-30" d="M172.2,222.46s-33.07,23.64-58.57,29.78c0,0-35,8.7-62.63-11.51-4.06-3-21.06-16.24-21.06-48.32l1.7-69.79s.3-5.28,8.67-5.37,34.77-.65,45.42,29.53c6.53,18.5,10.17,56.37,16.84,76.89,2.05,6.31,7.06,13.77,22.71,11.73,24.91-3.25,37.85-19.32,48.57-22.72C174.89,212.35,177,218.34,172.2,222.46Z"/><g class="cls-31"><path class="cls-32" d="M172.2,222.46s-33.07,23.64-58.57,29.78c0,0-35,8.7-62.63-11.51-4.06-3-21.06-16.24-21.06-48.32l1.7-69.79s.3-5.28,8.67-5.37,34.77-.65,45.42,29.53c6.53,18.5,10.17,56.37,16.84,76.89,2.05,6.31,7.06,13.77,22.71,11.73,24.91-3.25,37.85-19.32,48.57-22.72C174.89,212.35,177,218.34,172.2,222.46Z"/></g><path class="cls-33" d="M322.25,282.8l153.43-88.58a6.44,6.44,0,0,1,5.8.24l64.75,37.38c1.71,1,1.9,2.49.41,3.35L393.21,323.77a6.44,6.44,0,0,1-5.8-.24l-64.74-37.38C321,285.16,320.76,283.66,322.25,282.8Z"/><path class="cls-34" d="M319.44,276,477,184.1a6.64,6.64,0,0,1,6,.22l66.8,38.19c1.77,1,2,2.55.45,3.44L392.66,317.8a6.64,6.64,0,0,1-6-.22l-66.81-38.19C318.11,278.38,317.91,276.84,319.44,276Z"/><polygon class="cls-35" points="450.9 243.43 461.49 237.32 461.5 235.34 458.07 235.35 447.49 241.46 447.48 243.43 450.9 243.43"/><polygon class="cls-35" points="465.91 252.1 476.5 245.99 476.51 244.01 473.09 244.02 462.5 250.13 462.5 252.1 465.91 252.1"/><polygon class="cls-35" points="435.84 234.74 446.43 228.63 446.44 226.65 443.02 226.66 432.43 232.77 432.43 234.74 435.84 234.74"/><polygon class="cls-35" points="447.51 246.08 458.1 252.19 461.52 252.2 461.51 250.22 450.92 244.11 447.51 244.11 447.51 246.08"/><polygon class="cls-36" points="462.66 237.33 473.25 243.45 476.67 243.45 476.66 241.48 466.07 235.36 462.66 235.36 462.66 237.33"/><polygon class="cls-36" points="432.29 237.29 442.88 243.4 446.3 243.41 446.29 241.43 435.7 235.32 432.28 235.32 432.29 237.29"/><polygon class="cls-35" points="447.38 228.57 457.97 234.69 461.39 234.69 461.38 232.72 450.79 226.6 447.38 226.6 447.38 228.57"/><polygon class="cls-35" points="477.42 228.12 488 222.01 488.02 220.03 484.59 220.04 474.01 226.15 474 228.12 477.42 228.12"/><polygon class="cls-36" points="492.43 236.79 503.02 230.68 503.03 228.7 499.61 228.71 489.02 234.82 489.01 236.79 492.43 236.79"/><polygon class="cls-37" points="490.99 232.9 490.99 224.25 488.58 222.85 486.17 224.25 486.17 232.9 488.58 234.29 490.99 232.9"/><polygon class="cls-37" points="464.58 248.04 464.58 239.4 462.17 237.99 459.75 239.4 459.75 248.04 462.17 249.44 464.58 248.04"/><polygon class="cls-37" points="397.25 286.8 397.25 278.16 394.84 276.75 392.43 278.16 392.43 286.8 394.84 288.2 397.25 286.8"/><polygon class="cls-36" points="462.36 219.43 472.95 213.32 472.96 211.34 469.54 211.35 458.95 217.46 458.95 219.43 462.36 219.43"/><polygon class="cls-36" points="474.03 230.77 484.62 236.88 488.04 236.89 488.03 234.91 477.44 228.8 474.03 228.8 474.03 230.77"/><polygon class="cls-35" points="489.18 222.02 499.77 228.13 503.19 228.14 503.18 226.17 492.59 220.05 489.18 220.05 489.18 222.02"/><polygon class="cls-35" points="458.81 221.98 469.39 228.09 472.82 228.1 472.81 226.12 462.22 220.01 458.8 220 458.81 221.98"/><polygon class="cls-35" points="473.9 213.26 484.49 219.38 487.91 219.38 487.9 217.41 477.31 211.29 473.9 211.29 473.9 213.26"/><polygon class="cls-36" points="383.74 282.21 394.32 276.1 394.34 274.12 390.91 274.13 380.33 280.24 380.32 282.21 383.74 282.21"/><polygon class="cls-35" points="398.75 290.88 409.34 284.76 409.35 282.79 405.93 282.79 395.34 288.9 395.33 290.88 398.75 290.88"/><polygon class="cls-35" points="368.68 273.52 379.27 267.4 379.28 265.43 375.86 265.43 365.27 271.55 365.27 273.52 368.68 273.52"/><polygon class="cls-35" points="380.35 284.85 390.94 290.97 394.36 290.97 394.35 289 383.76 282.88 380.35 282.88 380.35 284.85"/><polygon class="cls-35" points="395.5 276.11 406.09 282.22 409.51 282.23 409.5 280.25 398.91 274.14 395.5 274.14 395.5 276.11"/><polygon class="cls-35" points="365.13 276.06 375.71 282.18 379.14 282.18 379.13 280.21 368.54 274.09 365.12 274.09 365.13 276.06"/><polygon class="cls-35" points="380.22 267.35 390.81 273.46 394.23 273.47 394.22 271.49 383.63 265.38 380.22 265.38 380.22 267.35"/><polygon class="cls-35" points="410.26 266.9 420.85 260.78 420.86 258.81 417.43 258.81 406.85 264.93 406.84 266.9 410.26 266.9"/><polygon class="cls-35" points="425.27 275.56 435.86 269.45 435.87 267.47 432.44 267.48 421.86 273.59 421.85 275.56 425.27 275.56"/><polygon class="cls-37" points="423.83 271.68 423.83 263.03 421.42 261.63 419.01 263.03 419.01 271.68 421.42 273.07 423.83 271.68"/><polygon class="cls-37" points="476.01 224.04 476.01 215.4 473.6 213.99 471.19 215.4 471.19 224.04 473.6 225.44 476.01 224.04"/><polygon class="cls-37" points="449.6 239.18 449.6 230.54 447.19 229.13 444.77 230.54 444.77 239.18 447.19 240.58 449.6 239.18"/><polygon class="cls-37" points="382.27 277.94 382.27 269.3 379.86 267.9 377.45 269.3 377.45 277.94 379.86 279.34 382.27 277.94"/><polygon class="cls-37" points="408.85 262.82 408.85 254.17 406.44 252.77 404.03 254.17 404.03 262.82 406.44 264.21 408.85 262.82"/><polygon class="cls-35" points="395.2 258.21 405.79 252.09 405.8 250.12 402.38 250.12 391.79 256.24 391.79 258.21 395.2 258.21"/><polygon class="cls-35" points="406.87 269.54 417.46 275.65 420.88 275.66 420.87 273.69 410.28 267.57 406.87 267.57 406.87 269.54"/><polygon class="cls-35" points="422.02 260.8 432.61 266.91 436.03 266.92 436.02 264.94 425.43 258.83 422.02 258.83 422.02 260.8"/><polygon class="cls-35" points="391.64 260.75 402.23 266.86 405.66 266.87 405.64 264.89 395.06 258.78 391.64 258.78 391.64 260.75"/><polygon class="cls-35" points="406.74 252.04 417.33 258.15 420.75 258.16 420.74 256.18 410.15 250.07 406.74 250.07 406.74 252.04"/><polygon class="cls-35" points="433.63 254.1 437.62 251.79 441.61 254.1 437.62 256.4 433.63 254.1"/><polygon class="cls-35" points="425.12 249.18 429.11 246.88 433.1 249.18 429.11 251.48 425.12 249.18"/><path class="cls-38" d="M308.91,289.59c-7.13-4.12-18.7-4.12-25.84,0-1.31.76-5,.71-5.05,1.83-.4,5-.76,9.73,5.05,13.09,7.14,4.12,18.71,4.12,25.84,0,5.8-3.35,5.34-10.9,5.28-12C314.11,291.31,310.25,290.37,308.91,289.59Z"/><ellipse class="cls-39" cx="295.99" cy="293.06" rx="18.27" ry="10.55"/><g class="cls-40"><path class="cls-41" d="M302.89,294.67l-2.45,1.42-6.51-3.78-1.08-.65-1.17-.72a6.6,6.6,0,0,1,0,.95l-.27,1.39-2.65-.17.76-3.87,2-1.17Z"/></g><path class="cls-9" d="M302.86,294.15l-2.45,1.41-6.71-3.87-1.07-.65-1.17-.72a6.15,6.15,0,0,1,0,.95l-.26,1.39-2.66-.17.76-3.87,2-1.16Z"/><path class="cls-42" d="M308.91,280.51c-7.13-4.12-18.7-4.12-25.84,0-1.31.76-5,.71-5.05,1.82-.4,5-.76,9.74,5.05,13.1,7.14,4.12,18.71,4.12,25.84,0,5.8-3.35,5.34-10.9,5.28-12C314.11,282.23,310.25,281.28,308.91,280.51Z"/><ellipse class="cls-43" cx="295.99" cy="283.98" rx="18.27" ry="10.55"/><g class="cls-40"><path class="cls-41" d="M302.89,285.59,300.44,287l-6.51-3.77-1.08-.65-1.17-.72a6.6,6.6,0,0,1,0,.95l-.27,1.39-2.65-.17.76-3.87,2-1.17Z"/></g><path class="cls-9" d="M302.86,285.07l-2.45,1.41-6.71-3.87-1.07-.65-1.17-.72a6.15,6.15,0,0,1,0,.95l-.26,1.39-2.66-.17.76-3.87,2-1.17Z"/></g></svg>