<?xml version="1.0" encoding="UTF-8" standalone="no"?>
<!-- Created with Keyshape -->
<svg xmlns="http://www.w3.org/2000/svg" xmlns:xlink="http://www.w3.org/1999/xlink" id="Ebene_1" data-name="Ebene 1" width="552" height="391.3" viewBox="0 0 552 391.3">
    <defs>
        <linearGradient id="Gradient-0" x1="153.98" y1="296.06" x2="153.98" y2="211.66" gradientUnits="userSpaceOnUse">
            <stop offset="0" stop-color="#ffffff"/>
            <stop offset="0.14" stop-color="#fbfbfc"/>
            <stop offset="0.28" stop-color="#eff0f3"/>
            <stop offset="0.43" stop-color="#dbdee4"/>
            <stop offset="0.57" stop-color="#bec5cf"/>
            <stop offset="0.72" stop-color="#9aa4b4"/>
            <stop offset="0.73" stop-color="#95a0b0"/>
            <stop offset="0.94" stop-color="#99a3b3"/>
            <stop offset="1" stop-color="#9ca6b5"/>
        </linearGradient>
        <linearGradient id="Gradient-1" x1="181.35" y1="217.53" x2="169.95" y2="217.53" gradientUnits="userSpaceOnUse">
            <stop offset="0.02" stop-color="#c6c6c6" stop-opacity="0.3"/>
            <stop offset="0.32" stop-color="#8e8e8e" stop-opacity="0.65"/>
            <stop offset="0.68" stop-color="#8b8b8b" stop-opacity="0.96"/>
            <stop offset="1" stop-color="#878787"/>
        </linearGradient>
        <linearGradient id="Gradient-2" x1="144.57" y1="246.54" x2="160.03" y2="219.76" gradientUnits="userSpaceOnUse">
            <stop offset="0.12" stop-color="#c6c6c6" stop-opacity="0.1"/>
            <stop offset="0.73" stop-color="#8a8a8a" stop-opacity="0.97"/>
            <stop offset="1" stop-color="#878787"/>
        </linearGradient>
        <linearGradient id="Gradient-3" x1="62" y1="276.18" x2="110.97" y2="276.18" gradientUnits="userSpaceOnUse">
            <stop offset="0.68" stop-color="#70ddf0"/>
            <stop offset="1" stop-color="#b3edf7"/>
        </linearGradient>
        <linearGradient id="Gradient-4" x1="168.62" y1="279.76" x2="224.43" y2="223.95" gradientUnits="userSpaceOnUse">
            <stop offset="0.37" stop-color="#ffffff"/>
            <stop offset="0.46" stop-color="#fbfbfc"/>
            <stop offset="0.55" stop-color="#eff0f3"/>
            <stop offset="0.64" stop-color="#dbdee4"/>
            <stop offset="0.73" stop-color="#bec5cf"/>
            <stop offset="0.82" stop-color="#9aa4b4"/>
            <stop offset="0.83" stop-color="#95a0b0"/>
            <stop offset="0.96" stop-color="#99a3b3"/>
            <stop offset="1" stop-color="#9ca6b5"/>
        </linearGradient>
        <linearGradient id="Gradient-5" x1="289.14" y1="286.57" x2="434.99" y2="286.57" gradientUnits="userSpaceOnUse">
            <stop offset="0" stop-color="#2581c4"/>
            <stop offset="1" stop-color="#2581c4" stop-opacity="0"/>
        </linearGradient>
        <linearGradient id="Gradient-6" x1="341.8" y1="294.99" x2="355.83" y2="294.99" gradientUnits="userSpaceOnUse">
            <stop offset="0" stop-color="#e7f9fc" stop-opacity="0"/>
            <stop offset="1" stop-color="#ffffff" stop-opacity="0.5"/>
        </linearGradient>
        <linearGradient id="Gradient-7" x1="578.67" y1="329.3" x2="630.14" y2="329.3" gradientUnits="userSpaceOnUse" gradientTransform="matrix(1.01 -0.08 -0.25 1.01 -173.59 -6.36)">
            <stop offset="0" stop-color="#e7f9fc" stop-opacity="0"/>
            <stop offset="1" stop-color="#ffffff"/>
        </linearGradient>
        <linearGradient id="Gradient-8" x1="618.35" y1="348.96" x2="659.01" y2="348.96" gradientUnits="userSpaceOnUse" gradientTransform="matrix(1.01 -0.08 -0.25 1.01 -173.59 -6.36)">
            <stop offset="0" stop-color="#e7f9fc" stop-opacity="0"/>
            <stop offset="1" stop-color="#ffffff" stop-opacity="0.5"/>
        </linearGradient>
        <linearGradient id="Gradient-9" x1="377.96" y1="104.58" x2="386.7" y2="89.44" gradientUnits="userSpaceOnUse" gradientTransform="matrix(1.5 0.29 -0.87 0.5 31.4 4.68)">
            <stop offset="0" stop-color="#72cbcc"/>
            <stop offset="1" stop-color="#13ffa0"/>
        </linearGradient>
        <linearGradient id="Gradient-10" x1="141.64" y1="453.58" x2="255.63" y2="209.49" gradientUnits="userSpaceOnUse" gradientTransform="matrix(1 0 0 1 62.97 -227.11)">
            <stop offset="0.2" stop-color="#28cce8" stop-opacity="0.3"/>
            <stop offset="1" stop-color="#28cce8" stop-opacity="0.7"/>
        </linearGradient>
        <linearGradient id="Gradient-11" x1="133.27" y1="458.58" x2="247.25" y2="214.49" gradientUnits="userSpaceOnUse" gradientTransform="matrix(1 0 0 1 62.97 -227.11)">
            <stop offset="0" stop-color="#e7f9fc" stop-opacity="0.3"/>
            <stop offset="1" stop-color="#28cce8" stop-opacity="0.7"/>
        </linearGradient>
        <linearGradient id="Gradient-12" x1="184.89" y1="104.35" x2="200.66" y2="104.35" gradientUnits="userSpaceOnUse" gradientTransform="matrix(0.87 0.5 0 1.15 26.61 -53.39)">
            <stop offset="0" stop-color="#2581c4"/>
            <stop offset="1" stop-color="#2581c4" stop-opacity="0"/>
        </linearGradient>
        <linearGradient id="Gradient-13" x1="-1296.22" y1="767.83" x2="-1279.41" y2="767.83" gradientUnits="userSpaceOnUse" gradientTransform="matrix(-0.87 -0.5 -0.5 0.87 -440.04 -1088.81)">
            <stop offset="0" stop-color="#2581c4"/>
            <stop offset="1" stop-color="#2581c4" stop-opacity="0"/>
        </linearGradient>
        <linearGradient id="Gradient-14" x1="163.12" y1="85.81" x2="209.39" y2="5.68" gradientUnits="userSpaceOnUse" gradientTransform="matrix(0.866025 0.5 -0.5 0.866025 80.85 -22.08)">
            <stop offset="0" stop-color="#001b41"/>
            <stop offset="1" stop-color="#001b41" stop-opacity="0.3"/>
        </linearGradient>
        <linearGradient id="Gradient-15" x1="198.53" y1="70.33" x2="198.53" y2="64.98" gradientUnits="userSpaceOnUse" gradientTransform="matrix(0.866025 0.5 -0.5 0.866025 80.85 -22.08)">
            <stop offset="0" stop-color="#e7f9fc" stop-opacity="0.1"/>
            <stop offset="0.63" stop-color="#28cce8" stop-opacity="0.8"/>
        </linearGradient>
        <linearGradient id="Gradient-16" x1="210.35" y1="35.17" x2="235.68" y2="9.84" gradientUnits="userSpaceOnUse" gradientTransform="matrix(0.87 0.5 0 1.15 26.61 -53.39)">
            <stop offset="0" stop-color="#e7f9fc" stop-opacity="0.2"/>
            <stop offset="0.63" stop-color="#28cce8" stop-opacity="0.8"/>
        </linearGradient>
        <linearGradient id="Gradient-17" x1="261.056" y1="151.675" x2="301.163" y2="63.441" gradientUnits="userSpaceOnUse">
            <stop offset="0" stop-color="#001b41"/>
            <stop offset="1" stop-color="#001b41" stop-opacity="0.3"/>
        </linearGradient>
        <linearGradient id="Gradient-18" x1="-69.7851" y1="207.143" x2="-39.6651" y2="207.143" gradientUnits="userSpaceOnUse" gradientTransform="matrix(0.5 0.87 -0.58 1 147.44 -158.35)">
            <stop offset="0.14" stop-color="#28cce8" stop-opacity="0.4"/>
            <stop offset="0.63" stop-color="#28cce8" stop-opacity="0.8"/>
        </linearGradient>
        <linearGradient id="Gradient-19" x1="263.244" y1="201.261" x2="315.747" y2="142.195" gradientUnits="userSpaceOnUse">
            <stop offset="0" stop-color="#001b41"/>
            <stop offset="0.712667" stop-color="#001b41" stop-opacity="0.43"/>
            <stop offset="1" stop-color="#001b41" stop-opacity="0.3"/>
        </linearGradient>
        <linearGradient id="Gradient-20" x1="-102.455" y1="227.434" x2="-72.3851" y2="227.434" gradientUnits="userSpaceOnUse" gradientTransform="matrix(0.5 0.87 -0.58 1 175.43 -150.2)">
            <stop offset="0.14" stop-color="#e6332a" stop-opacity="0.4"/>
            <stop offset="0.63" stop-color="#e00022" stop-opacity="0.8"/>
        </linearGradient>
        <linearGradient id="Gradient-21" x1="377.72" y1="338.01" x2="523.57" y2="338.01" gradientUnits="userSpaceOnUse">
            <stop offset="0" stop-color="#2581c4"/>
            <stop offset="1" stop-color="#2581c4" stop-opacity="0"/>
        </linearGradient>
        <linearGradient id="Gradient-22" x1="430.38" y1="346.43" x2="444.41" y2="346.43" gradientUnits="userSpaceOnUse">
            <stop offset="0" stop-color="#e7f9fc" stop-opacity="0"/>
            <stop offset="1" stop-color="#ffffff" stop-opacity="0.5"/>
        </linearGradient>
        <linearGradient id="Gradient-23" x1="-313.629" y1="182.773" x2="-293.729" y2="182.773" gradientUnits="userSpaceOnUse" gradientTransform="matrix(0.87 0.5 -1 0.58 447.86 46.4)">
            <stop offset="0" stop-color="#e6332a"/>
            <stop offset="1" stop-color="#a3195b"/>
        </linearGradient>
    </defs>
    <style>
@keyframes a0_o { 0% { opacity: 1; } 40% { opacity: 1; } 40.7692% { opacity: 0.2; } 41.5385% { opacity: 1; } 63.0769% { opacity: 1; } 63.8462% { opacity: 0.2; } 64.6154% { opacity: 1; } 86.9231% { opacity: 1; } 87.6923% { opacity: 0.2; } 88.4615% { opacity: 1; } 100% { opacity: 1; } }
@keyframes a1_o { 0% { opacity: 1; } 34.6154% { opacity: 1; } 35.3846% { opacity: 0.2; } 36.1538% { opacity: 1; } 57.6923% { opacity: 1; } 58.4615% { opacity: 0.2; } 59.2308% { opacity: 1; } 81.5385% { opacity: 1; } 82.3077% { opacity: 0.2; } 83.0769% { opacity: 1; } 100% { opacity: 1; } }
@keyframes a2_t { 0% { transform: translate(288.649988px,244.470004px); } 16.1538% { transform: translate(288.649988px,244.470004px); } 19.2307% { transform: translate(288.649988px,238.470004px); } 22.3076% { transform: translate(288.649988px,244.470004px); } 100% { transform: translate(288.649988px,244.470004px); } }
@keyframes good-performance_t { 0% { transform: translate(415.576848px,276.180022px); } 16.1538% { transform: translate(415.576848px,276.180022px); } 19.2307% { transform: translate(415.576848px,270.180022px); } 22.3076% { transform: translate(415.576848px,276.180022px); } 100% { transform: translate(415.576848px,276.180022px); } }
@keyframes good-performance_o { 0% { opacity: 1; } 46.9231% { opacity: 1; } 50% { opacity: 1; } 100% { opacity: 1; } }
@keyframes a3_t { 0% { transform: translate(387.649988px,178.470004px); } 37.6923% { transform: translate(387.649988px,178.470004px); animation-timing-function: cubic-bezier(0.42,0,0.58,1); } 41.5384% { transform: translate(387.649988px,186.470004px); } 100% { transform: translate(387.649988px,186.470004px); } }
@keyframes a3_o { 0% { opacity: 0; } 37.6923% { opacity: 0; animation-timing-function: cubic-bezier(0.42,0,0.58,1); } 41.5385% { opacity: 1; } 92.3077% { opacity: 1; animation-timing-function: cubic-bezier(0.42,0,0.58,1); } 96.1538% { opacity: 0; } 100% { opacity: 0; } }
@keyframes good-performance-2_t { 0% { transform: translate(514.576848px,210.180022px); } 37.6923% { transform: translate(514.576848px,210.180022px); animation-timing-function: cubic-bezier(0.42,0,0.58,1); } 41.5384% { transform: translate(514.576848px,218.180022px); } 100% { transform: translate(514.576848px,218.180022px); } }
@keyframes good-performance-2_o { 0% { opacity: 0; } 37.6923% { opacity: 0; animation-timing-function: cubic-bezier(0.42,0,0.58,1); } 41.5385% { opacity: 1; } 92.3077% { opacity: 1; animation-timing-function: cubic-bezier(0.42,0,0.58,1); } 96.1538% { opacity: 0; } 100% { opacity: 0; } }
@keyframes a4_o { 0% { opacity: 1; } 62.3077% { opacity: 1; } 63.8462% { opacity: 0; } 100% { opacity: 0; } }
@keyframes a5_o { 0% { opacity: 1; } 61.5385% { opacity: 1; } 63.0769% { opacity: 0; } 100% { opacity: 0; } }
@keyframes five_o { 0% { opacity: 0; } 63.0769% { opacity: 0; } 64.6154% { opacity: 1; } 100% { opacity: 1; } }
@keyframes radius-chart_o { 0% { opacity: 1; } 48.4615% { opacity: 1; } 50% { opacity: 0; } 64.6154% { opacity: 0; } 66.1538% { opacity: 1; } 100% { opacity: 1; } }
@keyframes good-p_t { 0% { transform: translate(504.540169px,328.68296px); } 20% { transform: translate(504.540169px,328.68296px); } 23.8461% { transform: translate(504.540169px,323.68296px); } 27.6923% { transform: translate(504.540169px,328.68296px); } 100% { transform: translate(504.540169px,328.68296px); } }
@keyframes good-p_o { 0% { opacity: 1; } 46.9231% { opacity: 1; } 50% { opacity: 1; } 100% { opacity: 1; } }
@keyframes a6_t { 0% { transform: translate(377.230002px,295.910006px); } 20% { transform: translate(377.230002px,295.910006px); } 23.8461% { transform: translate(377.230002px,290.910006px); } 27.6923% { transform: translate(377.230002px,295.910006px); } 100% { transform: translate(377.230002px,295.910006px); } }
@keyframes low-2_o { 0% { opacity: 0; } 46.1538% { opacity: 0; } 49.2308% { opacity: 1; } 68.4615% { opacity: 1; } 70.7692% { opacity: 0; } 100% { opacity: 0; } }
@keyframes low-1_o { 0% { opacity: 0; } 46.1538% { opacity: 0; } 49.2308% { opacity: 1; } 70% { opacity: 1; } 72.3077% { opacity: 0; } 100% { opacity: 0; } }
@keyframes low_o { 0% { opacity: 0; } 46.1538% { opacity: 0; } 49.2308% { opacity: 1; } 69.2308% { opacity: 1; } 71.5385% { opacity: 0; } 100% { opacity: 0; } }
    </style>
    <title>konfiguration_mc</title>
    <path d="M389.78,186.92L494.42,126.51L389.78,66.1L285.14,126.51L389.78,186.92Z" fill="#263d5d"/>
    <path d="M389.78,140.24L494.42,79.83L389.78,19.42L285.14,79.83L389.78,140.24Z" fill="#f6f7f8"/>
    <path d="M389.78,176.5L494.42,116.08L494.43,79.83L389.78,140.25L389.78,176.5Z" fill="#718095"/>
    <path d="M389.78,176.49L285.14,116.08L285.14,79.83L389.78,140.24L389.78,176.49Z" fill="#dfe2e7"/>
    <path d="M401.15,156.91L454.75,126C457.09,124.65,459,121,459,117.86L459,117.86C459,114.74,457.09,113.29,454.75,114.65L401.15,145.59C398.81,146.94,396.89,150.59,396.89,153.72L396.89,153.72C396.89,156.82,398.81,158.26,401.15,156.91Z" fill="#263d5d"/>
    <path d="M382.35,165.65L382.35,165.65C383.03,166.04,383.59,165.65,383.59,164.71L383.59,146.88C383.585,146.649,383.554,146.419,383.497,146.195C383.439,145.971,383.356,145.754,383.249,145.549C383.142,145.344,383.011,145.152,382.86,144.977C382.708,144.802,382.537,144.646,382.35,144.51L382.35,144.51C381.66,144.11,381.11,144.51,381.11,145.44L381.11,163.28C381.115,163.511,381.146,163.741,381.203,163.965C381.261,164.189,381.344,164.406,381.451,164.611C381.558,164.816,381.689,165.008,381.84,165.183C381.992,165.358,382.163,165.514,382.35,165.65Z" fill="#95a0b0"/>
    <path d="M377.25,163.32L377.25,163.32C377.93,163.71,378.49,163.32,378.49,162.38L378.49,144.55C378.485,144.319,378.454,144.089,378.397,143.865C378.339,143.641,378.256,143.424,378.149,143.219C378.042,143.014,377.911,142.822,377.76,142.647C377.608,142.472,377.437,142.316,377.25,142.18L377.25,142.18C376.57,141.78,376.01,142.18,376.01,143.11L376.01,161C376.018,161.227,376.053,161.452,376.112,161.672C376.171,161.891,376.255,162.103,376.362,162.303C376.469,162.504,376.599,162.691,376.748,162.862C376.898,163.033,377.066,163.187,377.25,163.32Z" fill="#95a0b0"/>
    <path d="M372,160.3L372,160.3C372.69,160.69,373.24,160.3,373.24,159.36L373.24,141.53C373.235,141.299,373.204,141.069,373.147,140.845C373.089,140.621,373.006,140.404,372.899,140.199C372.792,139.994,372.661,139.802,372.51,139.627C372.358,139.452,372.187,139.296,372,139.16L372,139.16C371.32,138.76,370.77,139.16,370.77,140.09L370.77,157.93C370.774,158.161,370.805,158.39,370.861,158.614C370.918,158.838,371,159.054,371.107,159.259C371.213,159.464,371.343,159.656,371.493,159.831C371.643,160.007,371.814,160.164,372,160.3Z" fill="#95a0b0"/>
    <ellipse rx="3.86" ry="2.23" fill="#ffd7b3" opacity="1" transform="translate(148.71,469.16) rotate(-60) translate(480.66,105.79)" style="animation: 13s linear infinite both a0_o;"/>
    <ellipse rx="3.86" ry="2.23" fill="#70ddf0" opacity="1" transform="translate(141.79,464.94) rotate(-60) translate(473.55,109.68)" style="animation: 13s linear infinite both a1_o;"/>
    <path d="M132.86,216.89L133.03,268.46L175.11,292.96L175.11,241.29L132.86,216.89Z" fill="url(#Gradient-0)" opacity="0.25"/>
    <path d="M175.11,241.28L132.86,216.89L175.11,192.5L217.36,216.89L175.11,241.28Z" fill="#95a0b0" opacity="0.2"/>
    <path d="M172,223.18L179.24,218.57C179.574,218.361,179.879,218.107,180.146,217.817C180.413,217.527,180.64,217.203,180.821,216.853C181.002,216.502,181.136,216.13,181.219,215.744C181.301,215.359,181.332,214.964,181.31,214.57C181.2,213.09,180.69,211.64,179.08,211.97C175.96,212.59,170.33,218.22,170.33,218.22L170,223Z" fill="url(#Gradient-1)" opacity="0.56"/>
    <path d="M168.79,224.82L159.61,234.49L153.19,250.83L142.39,245.28L135.97,241.2L149.11,232.73L168.79,224.82Z" fill="url(#Gradient-2)" opacity="0.5"/>
    <ellipse rx="3.66" ry="2.11" fill="#263d5d" transform="translate(0,0) translate(126.4,329.22)"/>
    <ellipse rx="3.66" ry="2.11" fill="#263d5d" transform="translate(0,0) translate(129.33,357.4)"/>
    <path d="M166.67,217.23C166.67,217.23,174.03,205.41,175.09,205.23C177.52,202.5,181.53,204.02,181.48,207.23C180.85,208.59,175.25,216.78,175.25,217.23C175.25,217.68,173.6,224.15,169.19,224.23C164.78,224.31,166.67,217.23,166.67,217.23Z" fill="#0a90c4"/>
    <g opacity="0.3">
        <path d="M46.55,375.22C23.18,361.88,25.24,338.74,51.12,323.8C77,308.86,117.28,307.54,140.65,320.88C164.02,334.22,161.96,357.35,136.08,372.3C110.2,387.25,69.91,388.55,46.55,375.22Z" fill="#dfe2e7"/>
    </g>
    <ellipse rx="3.66" ry="2.11" fill="#263d5d" transform="translate(0,0) translate(89.14,369.09)"/>
    <ellipse rx="3.66" ry="2.11" fill="#263d5d" transform="translate(0,0) translate(71.65,323.15)"/>
    <ellipse rx="3.66" ry="2.11" fill="#263d5d" transform="translate(0,0) translate(54.17,348.59)"/>
    <path d="M97.26,329.84L121.77,323.78C121.77,323.78,127.7,322.31,128.27,326.78C128.37,327.6,124.73,327.89,124.73,327.89C124.73,327.89,124.43,326.77,123.4,326.96C122.37,327.15,60.12,345.1,60.12,345.1C60.12,345.1,56.5,346.38,56.5,347.41C56.5,348.44,53.1,348.59,53.1,348.59C53.1,348.59,51.35,345.17,53.99,344.13C55.99,343.33,80.15,335.42,91.47,331.73Z" fill="#718095"/>
    <path d="M73.81,318L129.48,350.19C129.48,350.19,131.99,350.78,131.25,355.36C131.09,356.36,127.86,356.36,127.12,355.95C126.38,355.54,126.82,355.07,126.23,353.88C125.64,352.69,76.17,325.24,76.17,325.24L70.41,322.06C67.6,320,70,315.83,73.81,318Z" fill="#718095"/>
    <path d="M90.7,333.72L86.77,367C86.77,367,89.2,372.08,91.63,367.66C92.4,366.26,96.37,331.19,96.37,331.19Z" fill="#718095"/>
    <path d="M96.54,335C96.0862,335.231,95.6068,335.408,95.1117,335.527C94.6166,335.645,94.1092,335.705,93.6,335.705C93.0908,335.705,92.5834,335.645,92.0883,335.527C91.5932,335.408,91.1138,335.231,90.66,335C90.3058,334.88,89.9982,334.652,89.7804,334.348C89.5625,334.044,89.4454,333.679,89.4454,333.305C89.4454,332.931,89.5625,332.566,89.7804,332.262C89.9982,331.958,90.3058,331.73,90.66,331.61C91.1138,331.379,91.5932,331.202,92.0883,331.083C92.5834,330.965,93.0908,330.905,93.6,330.905C94.1092,330.905,94.6166,330.965,95.1117,331.083C95.6068,331.202,96.0862,331.379,96.54,331.61C98.16,332.55,98.16,334.07,96.54,335Z" fill="#263d5d"/>
    <ellipse rx="4.15" ry="2.4" fill="#263d5d" transform="translate(0,0) translate(93.6,328.5)"/>
    <rect width="8.24" height="5.23" fill="#263d5d" transform="translate(0,0) translate(89.45,328.5)"/>
    <path d="M95.65,329.53C95.3332,329.69,94.9988,329.812,94.6536,329.894C94.3085,329.976,93.9548,330.018,93.6,330.018C93.2452,330.018,92.8915,329.976,92.5464,329.894C92.2012,329.812,91.8668,329.69,91.55,329.53C91.3017,329.447,91.0859,329.287,90.933,329.075C90.7801,328.862,90.6978,328.607,90.6978,328.345C90.6978,328.083,90.7801,327.828,90.933,327.615C91.0859,327.403,91.3017,327.243,91.55,327.16C91.8668,327,92.2012,326.878,92.5464,326.796C92.8915,326.714,93.2452,326.672,93.6,326.672C93.9548,326.672,94.3085,326.714,94.6536,326.796C94.9988,326.878,95.3332,327,95.65,327.16C95.8983,327.243,96.1141,327.403,96.267,327.615C96.4199,327.828,96.5022,328.083,96.5022,328.345C96.5022,328.607,96.4199,328.862,96.267,329.075C96.1141,329.287,95.8983,329.447,95.65,329.53Z" fill="#718095"/>
    <ellipse rx="2.9" ry="1.67" fill="#718095" transform="translate(0,0) translate(93.6,311.21)"/>
    <rect width="5.75" height="17.43" fill="#718095" transform="translate(0,0) translate(90.7,311.21)"/>
    <path d="M94.5,312.24C94.5,312.24,101.79,315.11,105.73,313.5C107.08,312.95,121.81,304.22,131.84,290.05C132.42,289.22,139.37,281.86,142.34,281.42C142.34,281.42,148.61,279.04,144.08,277.02C144.08,277.02,135.33,277.13,134.3,278.32C133.27,279.51,114.86,298.51,114.86,298.51L100.86,308.23Z" fill="#718095"/>
    <path d="M65.12,274.41L102.21,253.1C102.245,253.078,102.283,253.061,102.323,253.049C102.362,253.038,102.404,253.032,102.445,253.032C102.486,253.032,102.528,253.038,102.567,253.049C102.607,253.061,102.645,253.078,102.68,253.1L145,277.52C145.019,277.529,145.035,277.543,145.047,277.561C145.058,277.578,145.064,277.599,145.064,277.62C145.064,277.641,145.058,277.662,145.047,277.679C145.035,277.697,145.019,277.711,145,277.72C143.62,277.72,139.17,277.87,136.64,280.06C136.64,280.06,106.32,313.8,99.04,311.06C99.04,311.06,85.52,306.49,83.75,303.95C81.98,301.41,65.12,274.41,65.12,274.41Z" fill="#9ca6af"/>
    <path d="M63.22,223.09C63.22,223.09,67.61,229.71,62.64,244.04C61.3,247.88,45.64,235.38,45.64,235.38C45.64,235.38,47,216.13,63.22,223.09Z" fill="#ffd7b3"/>
    <path d="M155.76,208C156.91,197.38,154.09,191.81,152.06,188.46C150.03,185.11,146.22,186.75,146.36,188.46C146.46,189.59,147.66,206.21,147.66,206.21" fill="#0a90c4"/>
    <path d="M82.85,268.81C82.85,268.81,104.31,244.81,120.36,236.1C123.17,234.56,166.06,216.1,166.06,216.1C167.06,217.83,168.8,222.37,168.79,224.79C168.79,224.79,132.65,247.06,130.23,248.28C127.81,249.5,94.28,282.2,94.28,282.2C94.28,282.2,83.37,271.76,82.85,268.81Z" fill="#001b41"/>
    <path d="M38.9,230.92C38.9,230.92,36.73,218.12,46.97,214.92C48.1269,214.462,49.3138,214.084,50.5222,213.789C51.7307,213.493,52.958,213.28,54.1955,213.152C55.433,213.024,56.6778,212.98,57.9212,213.022C59.1647,213.063,60.4038,213.189,61.63,213.4C63,213.61,65.21,218.47,63.57,222.93C63.3075,223.451,62.9783,223.935,62.5908,224.37C62.2033,224.806,61.7607,225.189,61.2743,225.511C60.7879,225.832,60.2617,226.089,59.709,226.274C59.1563,226.46,58.5818,226.573,58,226.61C55.25,226.61,52.07,227.61,51.57,228.42C51.07,229.23,49.37,229.51,50.72,232.98C52.07,236.45,38.9,230.92,38.9,230.92Z" fill="#031434"/>
    <path d="M93,282.23C90.61,284.39,109.09,297.6,109.09,297.6C109.09,297.6,138.41,266,156.3,209C156.73,205.77,150.49,204.31,148.17,204.78C148.17,204.74,118.33,259.29,93,282.23Z" fill="#001b41"/>
    <path d="M63.46,238.5C63.46,238.5,57.59,239.87,55.46,239.45C55.0449,239.369,54.6341,239.268,54.2293,239.145C53.8245,239.023,53.4262,238.88,53.0359,238.717C52.6456,238.555,52.2639,238.372,51.8922,238.17C51.5205,237.969,51.1593,237.748,50.81,237.51C50.45,237.11,51.81,236.84,53.1,236.77C52.9782,236.568,52.8274,236.385,52.6524,236.227C52.4774,236.069,52.2802,235.937,52.067,235.836C51.8538,235.736,51.627,235.667,51.3937,235.632C51.1605,235.597,50.9234,235.596,50.69,235.63C48.88,235.74,48.04,234.25,49.23,233.63C50.42,233.01,54.39,228.4,55.97,228.76C57.55,229.12,63.66,229.5,64.52,232.51C65,234.09,64.74,237.83,63.46,238.5Z" fill="#efc7a5"/>
    <path d="M100.15,307.56C100.15,307.56,110.15,303.19,110.74,295.77C110.8,295.02,111.55,295.04,109.97,293.96C89.14,279.73,94.19,282.12,88.97,272.37C85.12,265.18,81.97,259.27,82.28,257.6C82.97,253.88,73.79,250.43,73.79,250.43C72.8486,250.003,71.9168,249.555,70.995,249.086C70.0733,248.618,69.1619,248.13,68.2615,247.621C67.3612,247.113,66.4721,246.585,65.5948,246.038C64.7176,245.491,63.8524,244.925,63,244.34C58.46,241.03,70.22,275.59,70.22,275.59L87.8,303.14C87.8,303.14,96.23,310.48,100.15,307.56Z" fill="url(#Gradient-3)"/>
    <path d="M71.88,266.59C82.27,263.14,92.75,245.92,93.25,243.64C93.94,240.53,92.89,236.18,85.81,234.82C85.81,234.82,65.54,230.95,64.22,230.82C64.22,230.82,62.74,238.53,64.22,239.21C65.7,239.89,85.91,240.29,78.49,245.96C71.07,251.63,65.49,245.89,61.62,243.12C60.14,242.06,68.27,260.58,68.27,260.58C68.27,260.58,70.67,267,71.88,266.59Z" fill="#b8eef7"/>
    <path d="M34.71,222.28L20.54,213.73L20.54,213.73C20.47,213.73,16.02,212.29,13.91,212.66C11.8,213.03,7.38,218.43,11.53,222.27C14.17,224.71,30.74,228.14,31.3,228.27C31.86,228.4,34.48,222.89,34.74,222.35C34.75,222.33,34.73,222.3,34.71,222.28Z" fill="#b8eef7"/>
    <path d="M31,227.73C31,227.73,35.28,231.28,37.18,231.79C37.5519,231.903,37.929,231.998,38.31,232.075C38.691,232.152,39.0754,232.211,39.462,232.251C39.8486,232.291,40.2369,232.313,40.6255,232.316C41.0142,232.319,41.4028,232.304,41.79,232.27C42.26,232.09,41.3,231.16,40.23,230.55C40.4153,230.435,40.6165,230.347,40.8272,230.289C41.0378,230.232,41.2557,230.205,41.474,230.211C41.6923,230.216,41.9086,230.253,42.1162,230.321C42.3238,230.388,42.5205,230.486,42.7,230.61C44.15,231.45,45.45,230.56,44.7,229.54C43.95,228.52,42.6,223.09,41.15,222.74C39.7,222.39,34.49,220.17,32.54,222.3C31.53,223.44,30.22,226.65,31,227.73Z" fill="#efc7a5"/>
    <path d="M4.18,221.34L16.72,224.18C16.72,224.18,49.72,236.38,56.97,240.56C64.22,244.74,69.24,261.16,78.47,282.12C78.9998,283.31,79.5651,284.485,80.1652,285.641C80.7653,286.798,81.4,287.936,82.0683,289.055C82.7366,290.174,83.4383,291.272,84.1724,292.348C84.9065,293.425,85.6727,294.479,86.47,295.51C87.57,296.95,87.47,298.94,88.56,300.2C89.42,301.2,90.8,302.66,91.65,303.51C92.6564,304.558,93.72,305.55,94.8359,306.48C95.9518,307.411,97.1184,308.279,98.3302,309.081C99.5421,309.882,100.797,310.617,102.09,311.28C103.383,311.943,104.712,312.534,106.07,313.05C102.9,316.77,89.55,312.13,89.55,312.13L42.39,292.56C34.09,287.77,28.78,275.08,25.47,263.97C22.38,253.59,4.18,221.34,4.18,221.34Z" fill="#718095"/>
    <path d="M5.15,219.69L52.62,235.1C55.3,236.1,66.12,242.63,68.77,252.93C68.77,252.93,78.66,283.93,93.07,303.66C93.07,303.66,97.34,308.23,100.87,308.23C100.87,308.23,102.53,310.63,101.39,310.99C100.25,311.35,94.28,310.36,88.39,304.4C84.87,300.81,71.84,276.56,63.98,252.6C62.71,248.71,55.92,239.23,47.52,236.6C43.28,235.26,4.14,221.36,4.14,221.36C4.14,221.36,3.92,219.29,5.15,219.69Z" fill="#9ca6af"/>
    <path d="M94.6,279.87C94.6,279.87,117.86,258.18,126.3,242.24" fill="#28cce8" stroke="#001b41" stroke-miterlimit="10"/>
    <path d="M217.36,216.89L217.36,263.21L174.9,286.04L174.9,286.04L174.9,241.28L217.36,216.89Z" fill="url(#Gradient-4)" opacity="0.15"/>
    <g transform="translate(361.82,290.91) translate(-73.17,-46.44)" style="animation: 13s linear infinite both a2_t;">
        <path d="M365.87,253.14L434.5,292.76L357.29,337.35L288.65,297.72L365.87,253.14Z" fill="#263d5d" opacity="0.06" transform="translate(-288.65,-244.47)"/>
        <g id="Website_right_down" data-name="Website right down" transform="translate(-288.65,-244.47)">
            <path d="M366.36,244.47L434.99,284.1L357.78,328.68L289.14,289.05L366.36,244.47Z" fill="url(#Gradient-5)"/>
        </g>
        <path d="M353.74,299.32L353.19,298.1L351.86,298.24L351.31,297.02L349.99,297.16L349.45,295.94L348.12,296.08L347.57,294.86L346.25,295L345.71,293.78L344.38,293.92L343.84,292.7L342.52,292.84L341.84,291.32C341.815,291.264,341.801,291.203,341.8,291.141C341.799,291.079,341.809,291.018,341.832,290.96C341.854,290.903,341.887,290.85,341.93,290.805C341.973,290.761,342.024,290.725,342.08,290.7C342.136,290.674,342.196,290.659,342.257,290.657C342.319,290.655,342.38,290.666,342.437,290.688C342.494,290.711,342.546,290.745,342.589,290.788C342.633,290.831,342.667,290.883,342.69,290.94L343.09,291.84L344.42,291.7L344.95,292.92L346.28,292.78L346.82,294L348.15,293.86L348.69,295.08L350.02,294.94L350.56,296.16L351.89,296.02L352.43,297.24L353.77,297.1L354.31,298.32L355.31,298.22C355.427,298.219,355.539,298.262,355.626,298.339C355.713,298.417,355.768,298.524,355.781,298.64C355.793,298.756,355.762,298.872,355.694,298.966C355.625,299.061,355.524,299.126,355.41,299.15Z" fill="url(#Gradient-6)" transform="translate(-288.65,-244.47)"/>
        <path d="M349,302.9C348.769,303.018,348.524,303.108,348.271,303.169C348.019,303.23,347.76,303.261,347.5,303.261C347.24,303.261,346.981,303.23,346.729,303.169C346.476,303.108,346.231,303.018,346,302.9L337.31,297.9C337.135,297.836,336.983,297.72,336.876,297.567C336.769,297.414,336.712,297.232,336.712,297.045C336.712,296.858,336.769,296.676,336.876,296.523C336.983,296.37,337.135,296.254,337.31,296.19L339.07,295.19C339.301,295.071,339.546,294.979,339.798,294.918C340.051,294.857,340.31,294.826,340.57,294.826C340.83,294.826,341.089,294.857,341.342,294.918C341.594,294.979,341.839,295.071,342.07,295.19L350.75,300.19C350.929,300.252,351.084,300.368,351.194,300.522C351.304,300.676,351.363,300.861,351.363,301.05C351.363,301.239,351.304,301.424,351.194,301.578C351.084,301.732,350.929,301.848,350.75,301.91Z" fill="#f6f7f8" transform="translate(-288.65,-244.47)"/>
        <g id="Website_middle_down" data-name="Website middle down" transform="translate(-288.65,-244.47)">
            <g opacity="0.8">
                <ellipse id="Oval" rx="1.13" ry="0.64" fill="#f6f7f8" transform="translate(-1.3,1.9) rotate(-0.3) translate(366.05,252.18)"/>
                <ellipse id="Oval-2" data-name="Oval" rx="1.13" ry="0.64" fill="#f6f7f8" transform="translate(-1.31,1.91) rotate(-0.3) translate(368.63,253.68)"/>
                <ellipse id="Oval-3" data-name="Oval" rx="1.13" ry="0.64" fill="#f6f7f8" transform="translate(-1.32,1.93) rotate(-0.3) translate(371.3,255.22)"/>
            </g>
            <path d="M365.79,258.68L362.57,256.82C362.48,256.77,362.49,256.67,362.57,256.61L362.63,256.61C362.658,256.595,362.689,256.584,362.72,256.576C362.751,256.569,362.783,256.565,362.815,256.565C362.847,256.565,362.879,256.569,362.91,256.576C362.941,256.584,362.972,256.595,363,256.61L366.21,258.46C366.31,258.52,366.3,258.62,366.21,258.68L366.15,258.68C366.122,258.694,366.093,258.704,366.062,258.711C366.032,258.718,366.001,258.722,365.97,258.722C365.939,258.722,365.908,258.718,365.878,258.711C365.847,258.704,365.818,258.694,365.79,258.68Z" fill="#f6f7f8"/>
            <path d="M370.88,261.58L367.67,259.73C367.57,259.67,367.58,259.58,367.67,259.52L367.73,259.52C367.758,259.505,367.789,259.494,367.82,259.486C367.851,259.479,367.883,259.475,367.915,259.475C367.947,259.475,367.979,259.479,368.01,259.486C368.041,259.494,368.072,259.505,368.1,259.52L371.32,261.37C371.41,261.43,371.4,261.52,371.32,261.59L371.26,261.59C371.231,261.605,371.199,261.616,371.167,261.623C371.135,261.631,371.102,261.634,371.069,261.633C371.036,261.632,371.003,261.627,370.971,261.618C370.939,261.609,370.909,261.596,370.88,261.58Z" fill="#f6f7f8"/>
            <path d="M357.78,260.58L365.76,265.19" fill="#fdfeff" opacity="0.8" stroke="#f6f7f8" stroke-linecap="round" stroke-miterlimit="10" stroke-width="0.5px"/>
            <path d="M368.35,266.72L373.67,269.8" fill="#fdfeff" opacity="0.8" stroke="#f6f7f8" stroke-linecap="round" stroke-miterlimit="10" stroke-width="0.5px"/>
            <path d="M376.33,271.33L386.98,277.48" fill="#fdfeff" opacity="0.8" stroke="#f6f7f8" stroke-linecap="round" stroke-miterlimit="10" stroke-width="0.5px"/>
            <path d="M389.64,279.01L397.62,283.62" fill="#fdfeff" opacity="0.8" stroke="#f6f7f8" stroke-linecap="round" stroke-miterlimit="10" stroke-width="0.5px"/>
            <path d="M400.28,285.16L405.6,288.23" fill="#fdfeff" opacity="0.8" stroke="#f6f7f8" stroke-linecap="round" stroke-miterlimit="10" stroke-width="0.5px"/>
            <path d="M390.89,275L377.59,267.32C377.38,267.2,377.4,266.98,377.65,266.84L379.1,266C379.165,265.967,379.233,265.942,379.304,265.925C379.375,265.908,379.447,265.9,379.52,265.9C379.593,265.9,379.665,265.908,379.736,265.925C379.807,265.942,379.875,265.967,379.94,266L393.24,273.67C393.45,273.8,393.43,274.01,393.18,274.16L391.73,274.99C391.666,275.024,391.597,275.05,391.527,275.067C391.456,275.085,391.384,275.094,391.311,275.095C391.238,275.096,391.166,275.088,391.095,275.072C391.024,275.056,390.955,275.032,390.89,275Z" fill="#f6f7f8"/>
            <path d="M410.56,288L401.76,282.91C401.54,282.79,401.57,282.57,401.82,282.43L403.27,281.59C403.334,281.557,403.402,281.532,403.472,281.515C403.541,281.498,403.613,281.49,403.685,281.49C403.757,281.49,403.829,281.498,403.898,281.515C403.968,281.532,404.036,281.557,404.1,281.59L412.91,286.67C413.12,286.8,413.09,287.01,412.85,287.16L411.4,287.99C411.336,288.024,411.267,288.05,411.197,288.067C411.126,288.085,411.054,288.094,410.981,288.095C410.908,288.096,410.836,288.088,410.765,288.072C410.694,288.056,410.625,288.032,410.56,288Z" fill="#f6f7f8"/>
            <path d="M362.37,290.06L330.38,271.59L347.14,261.91L379.14,280.38L362.37,290.06Z" fill="url(#Gradient-7)"/>
            <path d="M387.4,304.37L364.76,291.3L381.53,281.62L404.17,294.69L387.4,304.37Z" fill="url(#Gradient-8)"/>
            <ellipse id="Oval-4" data-name="Oval" rx="0.83" ry="0.47" fill="#87e2f2" opacity="0.8" transform="translate(-1.5,1.83) rotate(-0.3) translate(353.51,290.38)"/>
            <ellipse id="Oval-5" data-name="Oval" rx="0.83" ry="0.47" fill="#87e2f2" opacity="0.5" transform="translate(-1.5,1.84) rotate(-0.3) translate(355,291.25)"/>
            <ellipse id="Oval-6" data-name="Oval" rx="0.83" ry="0.47" fill="#87e2f2" opacity="0.5" transform="translate(-1.51,1.85) rotate(-0.3) translate(356.56,292.15)"/>
        </g>
    </g>
    <g id="good-performance" opacity="1" transform="translate(428.295,283.107) translate(-12.7182,-6.92688)" style="animation: 13s linear infinite both good-performance_t, 13s linear infinite both good-performance_o;">
        <ellipse rx="11.97" ry="6.91" fill="#f6f7f8" transform="translate(-508.186,-156.59) translate(520.82,163.5)"/>
        <path d="M529.91,158.69C524.91,156,516.84,156,511.91,158.69C506.98,161.38,506.91,165.75,511.91,168.43C516.91,171.11,524.98,171.12,529.91,168.43C534.84,165.74,534.88,161.37,529.91,158.69ZM529.31,164.94L515.4,164.94C514.82,164.94,514.34,164.68,514.34,164.37L514.34,161.19C514.34,160.43,516.46,160.43,516.46,161.19L516.46,163.8L529.31,163.8C530.7,163.79,530.71,164.93,529.31,164.94Z" fill="url(#Gradient-9)" fill-rule="evenodd" transform="translate(-508.186,-156.59)"/>
    </g>
    <g opacity="0" transform="translate(460.82,224.91) translate(-73.17,-46.44)" style="animation: 13s linear infinite both a3_t, 13s linear infinite both a3_o;">
        <path d="M365.87,253.14L434.5,292.76L357.29,337.35L288.65,297.72L365.87,253.14Z" fill="#263d5d" opacity="0.06" transform="translate(-288.65,-244.47)"/>
        <g id="Website_right_down-2" data-name="Website right down" transform="translate(-288.65,-244.47)">
            <path d="M366.36,244.47L434.99,284.1L357.78,328.68L289.14,289.05L366.36,244.47Z" fill="url(#Gradient-5)"/>
        </g>
        <path d="M353.74,299.32L353.19,298.1L351.86,298.24L351.31,297.02L349.99,297.16L349.45,295.94L348.12,296.08L347.57,294.86L346.25,295L345.71,293.78L344.38,293.92L343.84,292.7L342.52,292.84L341.84,291.32C341.815,291.264,341.801,291.203,341.8,291.141C341.799,291.079,341.809,291.018,341.832,290.96C341.854,290.903,341.887,290.85,341.93,290.805C341.973,290.761,342.024,290.725,342.08,290.7C342.136,290.674,342.196,290.659,342.257,290.657C342.319,290.655,342.38,290.666,342.437,290.688C342.494,290.711,342.546,290.745,342.589,290.788C342.633,290.831,342.667,290.883,342.69,290.94L343.09,291.84L344.42,291.7L344.95,292.92L346.28,292.78L346.82,294L348.15,293.86L348.69,295.08L350.02,294.94L350.56,296.16L351.89,296.02L352.43,297.24L353.77,297.1L354.31,298.32L355.31,298.22C355.427,298.219,355.539,298.262,355.626,298.339C355.713,298.417,355.768,298.524,355.781,298.64C355.793,298.756,355.762,298.872,355.694,298.966C355.625,299.061,355.524,299.126,355.41,299.15Z" fill="url(#Gradient-6)" transform="translate(-288.65,-244.47)"/>
        <path d="M349,302.9C348.769,303.018,348.524,303.108,348.271,303.169C348.019,303.23,347.76,303.261,347.5,303.261C347.24,303.261,346.981,303.23,346.729,303.169C346.476,303.108,346.231,303.018,346,302.9L337.31,297.9C337.135,297.836,336.983,297.72,336.876,297.567C336.769,297.414,336.712,297.232,336.712,297.045C336.712,296.858,336.769,296.676,336.876,296.523C336.983,296.37,337.135,296.254,337.31,296.19L339.07,295.19C339.301,295.071,339.546,294.979,339.798,294.918C340.051,294.857,340.31,294.826,340.57,294.826C340.83,294.826,341.089,294.857,341.342,294.918C341.594,294.979,341.839,295.071,342.07,295.19L350.75,300.19C350.929,300.252,351.084,300.368,351.194,300.522C351.304,300.676,351.363,300.861,351.363,301.05C351.363,301.239,351.304,301.424,351.194,301.578C351.084,301.732,350.929,301.848,350.75,301.91Z" fill="#f6f7f8" transform="translate(-288.65,-244.47)"/>
        <g id="Website_middle_down-3" data-name="Website middle down" transform="translate(-288.65,-244.47)">
            <g opacity="0.8">
                <ellipse id="Oval-13" rx="1.13" ry="0.64" fill="#f6f7f8" transform="translate(-1.3,1.9) rotate(-0.3) translate(366.05,252.18)"/>
                <ellipse id="Oval-14" data-name="Oval" rx="1.13" ry="0.64" fill="#f6f7f8" transform="translate(-1.31,1.91) rotate(-0.3) translate(368.63,253.68)"/>
                <ellipse id="Oval-15" data-name="Oval" rx="1.13" ry="0.64" fill="#f6f7f8" transform="translate(-1.32,1.93) rotate(-0.3) translate(371.3,255.22)"/>
            </g>
            <path d="M365.79,258.68L362.57,256.82C362.48,256.77,362.49,256.67,362.57,256.61L362.63,256.61C362.658,256.595,362.689,256.584,362.72,256.576C362.751,256.569,362.783,256.565,362.815,256.565C362.847,256.565,362.879,256.569,362.91,256.576C362.941,256.584,362.972,256.595,363,256.61L366.21,258.46C366.31,258.52,366.3,258.62,366.21,258.68L366.15,258.68C366.122,258.694,366.093,258.704,366.062,258.711C366.032,258.718,366.001,258.722,365.97,258.722C365.939,258.722,365.908,258.718,365.878,258.711C365.847,258.704,365.818,258.694,365.79,258.68Z" fill="#f6f7f8"/>
            <path d="M370.88,261.58L367.67,259.73C367.57,259.67,367.58,259.58,367.67,259.52L367.73,259.52C367.758,259.505,367.789,259.494,367.82,259.486C367.851,259.479,367.883,259.475,367.915,259.475C367.947,259.475,367.979,259.479,368.01,259.486C368.041,259.494,368.072,259.505,368.1,259.52L371.32,261.37C371.41,261.43,371.4,261.52,371.32,261.59L371.26,261.59C371.231,261.605,371.199,261.616,371.167,261.623C371.135,261.631,371.102,261.634,371.069,261.633C371.036,261.632,371.003,261.627,370.971,261.618C370.939,261.609,370.909,261.596,370.88,261.58Z" fill="#f6f7f8"/>
            <path d="M357.78,260.58L365.76,265.19" fill="#fdfeff" opacity="0.8" stroke="#f6f7f8" stroke-linecap="round" stroke-miterlimit="10" stroke-width="0.5px"/>
            <path d="M368.35,266.72L373.67,269.8" fill="#fdfeff" opacity="0.8" stroke="#f6f7f8" stroke-linecap="round" stroke-miterlimit="10" stroke-width="0.5px"/>
            <path d="M376.33,271.33L386.98,277.48" fill="#fdfeff" opacity="0.8" stroke="#f6f7f8" stroke-linecap="round" stroke-miterlimit="10" stroke-width="0.5px"/>
            <path d="M389.64,279.01L397.62,283.62" fill="#fdfeff" opacity="0.8" stroke="#f6f7f8" stroke-linecap="round" stroke-miterlimit="10" stroke-width="0.5px"/>
            <path d="M400.28,285.16L405.6,288.23" fill="#fdfeff" opacity="0.8" stroke="#f6f7f8" stroke-linecap="round" stroke-miterlimit="10" stroke-width="0.5px"/>
            <path d="M390.89,275L377.59,267.32C377.38,267.2,377.4,266.98,377.65,266.84L379.1,266C379.165,265.967,379.233,265.942,379.304,265.925C379.375,265.908,379.447,265.9,379.52,265.9C379.593,265.9,379.665,265.908,379.736,265.925C379.807,265.942,379.875,265.967,379.94,266L393.24,273.67C393.45,273.8,393.43,274.01,393.18,274.16L391.73,274.99C391.666,275.024,391.597,275.05,391.527,275.067C391.456,275.085,391.384,275.094,391.311,275.095C391.238,275.096,391.166,275.088,391.095,275.072C391.024,275.056,390.955,275.032,390.89,275Z" fill="#f6f7f8"/>
            <path d="M410.56,288L401.76,282.91C401.54,282.79,401.57,282.57,401.82,282.43L403.27,281.59C403.334,281.557,403.402,281.532,403.472,281.515C403.541,281.498,403.613,281.49,403.685,281.49C403.757,281.49,403.829,281.498,403.898,281.515C403.968,281.532,404.036,281.557,404.1,281.59L412.91,286.67C413.12,286.8,413.09,287.01,412.85,287.16L411.4,287.99C411.336,288.024,411.267,288.05,411.197,288.067C411.126,288.085,411.054,288.094,410.981,288.095C410.908,288.096,410.836,288.088,410.765,288.072C410.694,288.056,410.625,288.032,410.56,288Z" fill="#f6f7f8"/>
            <path d="M362.37,290.06L330.38,271.59L347.14,261.91L379.14,280.38L362.37,290.06Z" fill="url(#Gradient-7)"/>
            <path d="M387.4,304.37L364.76,291.3L381.53,281.62L404.17,294.69L387.4,304.37Z" fill="url(#Gradient-8)"/>
            <ellipse id="Oval-16" data-name="Oval" rx="0.83" ry="0.47" fill="#87e2f2" opacity="0.8" transform="translate(-1.5,1.83) rotate(-0.3) translate(353.51,290.38)"/>
            <ellipse id="Oval-17" data-name="Oval" rx="0.83" ry="0.47" fill="#87e2f2" opacity="0.5" transform="translate(-1.5,1.84) rotate(-0.3) translate(355,291.25)"/>
            <ellipse id="Oval-18" data-name="Oval" rx="0.83" ry="0.47" fill="#87e2f2" opacity="0.5" transform="translate(-1.51,1.85) rotate(-0.3) translate(356.56,292.15)"/>
        </g>
    </g>
    <g id="good-performance-2" opacity="0" transform="translate(527.295,217.107) translate(-12.7182,-6.92688)" style="animation: 13s linear infinite both good-performance-2_t, 13s linear infinite both good-performance-2_o;">
        <ellipse rx="11.97" ry="6.91" fill="#f6f7f8" transform="translate(-508.186,-156.59) translate(520.82,163.5)"/>
        <path d="M529.91,158.69C524.91,156,516.84,156,511.91,158.69C506.98,161.38,506.91,165.75,511.91,168.43C516.91,171.11,524.98,171.12,529.91,168.43C534.84,165.74,534.88,161.37,529.91,158.69ZM529.31,164.94L515.4,164.94C514.82,164.94,514.34,164.68,514.34,164.37L514.34,161.19C514.34,160.43,516.46,160.43,516.46,161.19L516.46,163.8L529.31,163.8C530.7,163.79,530.71,164.93,529.31,164.94Z" fill="url(#Gradient-9)" fill-rule="evenodd" transform="translate(-508.186,-156.59)"/>
    </g>
    <g opacity="0.3">
        <path d="M324.1,243.49C324.1,245.14,322.93,245.82,321.5,244.99L183.31,165.21C182.935,164.963,182.589,164.673,182.281,164.346C181.973,164.019,181.704,163.657,181.48,163.268C181.256,162.878,181.078,162.464,180.95,162.033C180.822,161.603,180.745,161.159,180.72,160.71L180.72,4.74C180.72,3.09,181.89,2.41,183.31,3.24L321.5,83C321.877,83.2461,322.223,83.5354,322.532,83.8621C322.841,84.1888,323.111,84.5506,323.336,84.9401C323.561,85.3296,323.74,85.7441,323.869,86.1752C323.997,86.6062,324.075,87.0509,324.1,87.5Z" fill="url(#Gradient-10)"/>
    </g>
    <path d="M315.72,248.49C315.72,250.14,314.55,250.82,313.12,249.99L174.94,170.21C174.563,169.964,174.217,169.675,173.908,169.348C173.599,169.021,173.329,168.659,173.104,168.27C172.879,167.88,172.7,167.466,172.571,167.035C172.443,166.604,172.365,166.159,172.34,165.71L172.34,9.74C172.34,8.09,173.51,7.41,174.94,8.24L313.12,88C313.497,88.2461,313.843,88.5354,314.152,88.8621C314.461,89.1888,314.731,89.5506,314.956,89.9401C315.181,90.3296,315.36,90.7441,315.489,91.1752C315.617,91.6062,315.695,92.0509,315.72,92.5Z" fill="url(#Gradient-11)"/>
    <g opacity="0.5">
        <g opacity="0.5">
            <g opacity="0.8">
                <path d="M215.05,175.29C214.71,175.1,214.86,174.84,214.52,174.64C214.18,174.44,214.03,174.7,213.69,174.51C213.35,174.32,213.51,174.05,213.17,173.86C212.83,173.67,212.67,173.92,212.33,173.72C211.99,173.52,212.14,173.27,211.8,173.07C211.46,172.87,211.31,173.13,210.97,172.94C210.63,172.75,210.78,172.48,210.44,172.29C210.1,172.1,209.95,172.35,209.61,172.15C209.27,171.95,209.42,171.69,209.08,171.5C208.74,171.31,208.59,171.56,208.24,171.36C207.89,171.16,208.05,170.9,207.71,170.71" fill="none" stroke="#003d8f" stroke-linecap="round" stroke-miterlimit="10"/>
            </g>
            <g opacity="0.8">
                <path d="M219.15,181.62C218.62,181.31,218.86,180.91,218.33,180.62C217.8,180.33,217.57,180.71,217.04,180.41C216.51,180.11,216.75,179.7,216.22,179.41C215.69,179.12,215.46,179.51,214.93,179.2C214.4,178.89,214.63,178.49,214.11,178.2C213.59,177.91,213.34,178.3,212.82,177.99C212.3,177.68,212.52,177.28,212,176.99C211.48,176.7,211.23,177.09,210.7,176.78C210.17,176.47,210.41,176.07,209.88,175.78C209.35,175.49,209.11,175.87,208.58,175.57C208.05,175.27,208.28,174.86,207.75,174.57" fill="none" stroke="#003d8f" stroke-linecap="round" stroke-miterlimit="10"/>
            </g>
        </g>
        <path d="M197.49,169.62L189.62,165.08C189.183,164.763,188.783,164.396,188.43,163.987C188.077,163.578,187.772,163.129,187.523,162.65C187.273,162.171,187.079,161.665,186.946,161.141C186.812,160.618,186.74,160.08,186.73,159.54L186.73,159.54C186.73,157.41,188.02,156.43,189.62,157.35L197.49,161.89C197.928,162.207,198.329,162.573,198.683,162.982C199.037,163.391,199.342,163.839,199.593,164.318C199.844,164.797,200.038,165.304,200.172,165.828C200.307,166.352,200.38,166.889,200.39,167.43L200.39,167.43C200.39,169.56,199.09,170.54,197.49,169.62Z" fill="url(#Gradient-12)" opacity="0.8"/>
        <path d="M190.93,162.18L192.2,164.39C192.27,164.52,192.4,164.59,192.47,164.55C192.54,164.51,192.55,164.36,192.47,164.23L191.34,162.23L192.47,161.58C192.55,161.58,192.55,161.39,192.47,161.26C192.463,161.244,192.456,161.23,192.447,161.215C192.438,161.201,192.428,161.187,192.417,161.175C192.406,161.162,192.394,161.15,192.381,161.139C192.368,161.128,192.354,161.119,192.34,161.11C192.329,161.105,192.318,161.101,192.306,161.099C192.294,161.096,192.282,161.095,192.27,161.095C192.258,161.095,192.246,161.096,192.234,161.099C192.222,161.101,192.211,161.105,192.2,161.11L190.93,161.85C190.85,161.91,190.85,162.05,190.93,162.18Z" fill="#001b41"/>
        <path d="M193.16,163.47L194.43,165.68C194.51,165.81,194.63,165.88,194.71,165.84C194.79,165.8,194.79,165.65,194.71,165.52L193.57,163.52L194.71,162.87C194.79,162.87,194.79,162.68,194.71,162.55C194.702,162.535,194.693,162.52,194.682,162.506C194.672,162.492,194.661,162.479,194.65,162.466C194.638,162.453,194.625,162.442,194.612,162.431C194.599,162.419,194.585,162.409,194.57,162.4C194.559,162.395,194.548,162.391,194.536,162.389C194.524,162.386,194.512,162.385,194.5,162.385C194.488,162.385,194.476,162.386,194.464,162.389C194.452,162.391,194.441,162.395,194.43,162.4L193.16,163.14C193.08,163.2,193.08,163.34,193.16,163.47Z" fill="#001b41" opacity="0.6"/>
    </g>
    <g opacity="0.5">
        <g opacity="0.5">
            <g opacity="0.8">
                <path d="M269.83,206.7C270.17,206.89,270.02,207.15,270.36,207.35C270.7,207.55,270.85,207.29,271.19,207.48C271.53,207.67,271.37,207.94,271.71,208.13C272.05,208.32,272.21,208.07,272.55,208.27C272.89,208.47,272.74,208.72,273.08,208.92C273.42,209.12,273.57,208.86,273.91,209.05C274.25,209.24,274.1,209.51,274.43,209.7C274.76,209.89,274.93,209.64,275.27,209.84C275.61,210.04,275.46,210.3,275.8,210.49C276.14,210.68,276.29,210.43,276.64,210.63C276.99,210.83,276.83,211.09,277.17,211.28" fill="none" stroke="#003d8f" stroke-linecap="round" stroke-miterlimit="10"/>
            </g>
            <g opacity="0.8">
                <path d="M265.73,208.1C266.26,208.41,266.02,208.81,266.55,209.1C267.08,209.39,267.31,209.01,267.84,209.31C268.37,209.61,268.13,210.02,268.66,210.31C269.19,210.6,269.42,210.21,269.95,210.52C270.48,210.83,270.25,211.23,270.77,211.52C271.29,211.81,271.54,211.42,272.06,211.73C272.58,212.04,272.36,212.44,272.88,212.73C273.4,213.02,273.65,212.63,274.18,212.94C274.71,213.25,274.47,213.65,275,213.94C275.53,214.23,275.77,213.85,276.3,214.15C276.83,214.45,276.6,214.86,277.13,215.15" fill="none" stroke="#003d8f" stroke-linecap="round" stroke-miterlimit="10"/>
            </g>
        </g>
        <path d="M287.39,221.65L295.26,226.19C296.86,227.11,298.15,226.13,298.15,224L298.15,224C298.143,223.46,298.072,222.923,297.939,222.399C297.807,221.876,297.614,221.369,297.364,220.891C297.114,220.412,296.808,219.964,296.454,219.557C296.1,219.149,295.699,218.784,295.26,218.47L287.39,213.93C285.79,213,284.49,213.93,284.49,216.12L284.49,216.12C284.498,216.66,284.57,217.198,284.703,217.722C284.837,218.245,285.031,218.752,285.282,219.23C285.533,219.709,285.839,220.156,286.194,220.564C286.549,220.971,286.95,221.336,287.39,221.65Z" fill="url(#Gradient-13)" opacity="0.8"/>
        <path d="M294,221.8L292.73,222.53C292.66,222.58,292.53,222.53,292.46,222.37C292.39,222.21,292.38,222.1,292.46,222.05L293.59,221.4L292.46,219.4C292.38,219.27,292.38,219.13,292.46,219.08C292.47,219.074,292.48,219.07,292.491,219.067C292.502,219.064,292.514,219.063,292.525,219.063C292.536,219.063,292.548,219.064,292.559,219.067C292.57,219.07,292.58,219.074,292.59,219.08C292.604,219.089,292.617,219.099,292.63,219.109C292.643,219.12,292.656,219.131,292.667,219.143C292.679,219.154,292.69,219.167,292.701,219.18C292.711,219.193,292.721,219.206,292.73,219.22L294,221.43C294,221.61,294,221.75,294,221.8Z" fill="#001b41"/>
        <path d="M291.72,220.51L290.45,221.24C290.37,221.24,290.25,221.24,290.17,221.08C290.09,220.92,290.09,220.81,290.17,220.76L291.31,220.11L290.17,218.11C290.09,217.98,290.09,217.84,290.17,217.79C290.181,217.784,290.192,217.78,290.204,217.777C290.216,217.774,290.228,217.773,290.24,217.773C290.252,217.773,290.264,217.774,290.276,217.777C290.288,217.78,290.299,217.784,290.31,217.79C290.324,217.799,290.337,217.809,290.35,217.819C290.363,217.83,290.376,217.841,290.387,217.853C290.399,217.864,290.41,217.877,290.421,217.89C290.431,217.903,290.441,217.916,290.45,217.93L291.72,220.14C291.8,220.32,291.8,220.46,291.72,220.51Z" fill="#001b41" opacity="0.6"/>
    </g>
    <ellipse rx="2.01" ry="3.48" fill="#f965a8" transform="translate(11.78,95.47) rotate(-30) translate(184.03,25.76)"/>
    <ellipse rx="2.01" ry="3.48" fill="#fed22c" transform="translate(10.48,100.3) rotate(-30) translate(192.41,30.59)"/>
    <ellipse rx="2.01" ry="3.48" fill="#3ae0c0" transform="translate(9.19,105.14) rotate(-30) translate(200.78,35.43)"/>
    <path d="M253.74,182.84L184.81,143C184.65,142.887,184.504,142.755,184.375,142.608C184.246,142.461,184.135,142.299,184.043,142.126C183.951,141.953,183.88,141.77,183.831,141.58C183.781,141.39,183.754,141.196,183.75,141L183.75,39.29C183.75,38.51,184.22,38.15,184.81,38.49L253.74,78.28C253.898,78.3948,254.043,78.5273,254.171,78.6749C254.299,78.8225,254.41,78.9842,254.502,79.157C254.594,79.3298,254.665,79.5124,254.715,79.7015C254.765,79.8905,254.794,80.0846,254.8,80.28L254.8,182C254.8,182.82,254.32,183.18,253.74,182.84Z" fill="url(#Gradient-14)"/>
    <g opacity="0.6">
        <g opacity="0.8">
            <path d="M242.8,121.94C240.64,120.69,241.59,119.05,239.43,117.8C237.27,116.55,236.32,118.2,234.17,116.96C232.02,115.72,232.96,114.06,230.8,112.82C228.64,111.58,227.69,113.22,225.53,111.97C223.37,110.72,224.32,109.08,222.16,107.83C220,106.58,219.05,108.23,216.89,106.99C214.73,105.75,215.69,104.09,213.53,102.85C211.37,101.61,210.42,103.25,208.26,102C206.1,100.75,207.05,99.11,204.89,97.86C202.73,96.61,201.78,98.26,199.61,97.01C197.44,95.76,198.4,94.11,196.24,92.87" fill="none" stroke="#f6f7f8" stroke-linecap="round" stroke-miterlimit="10"/>
        </g>
        <g opacity="0.8">
            <path d="M235.13,125.72C233.66,124.87,234.31,123.72,232.84,122.89C231.37,122.06,230.72,123.17,229.25,122.32C227.78,121.47,228.42,120.32,226.95,119.5C225.48,118.68,224.83,119.77,223.36,118.92C221.89,118.07,222.54,116.92,221.06,116.1C219.58,115.28,218.94,116.37,217.47,115.52C216,114.67,216.65,113.52,215.18,112.7C213.71,111.88,213.06,112.97,211.58,112.12C210.1,111.27,210.76,110.12,209.29,109.3C207.82,108.48,207.16,109.57,205.69,108.72C204.22,107.87,204.86,106.72,203.39,105.89" fill="none" stroke="#f6f7f8" stroke-linecap="round" stroke-miterlimit="10"/>
        </g>
    </g>
    <path d="M231.44,146.07L206.44,131.66C206.156,131.455,205.896,131.218,205.666,130.953C205.437,130.688,205.239,130.397,205.076,130.087C204.914,129.776,204.788,129.448,204.701,129.109C204.614,128.769,204.567,128.42,204.56,128.07L204.56,126.9C204.56,125.52,205.41,124.9,206.44,125.48L231.44,139.9C231.724,140.104,231.984,140.34,232.213,140.604C232.443,140.868,232.641,141.158,232.804,141.467C232.966,141.777,233.092,142.105,233.179,142.444C233.266,142.782,233.313,143.13,233.32,143.48L233.32,144.66C233.32,146,232.47,146.67,231.44,146.07Z" fill="url(#Gradient-15)"/>
    <path d="M236.23,100.9L203.27,81.87L203.27,67.3L236.23,86.33L236.23,100.9Z" fill="url(#Gradient-16)"/>
    <path d="M302.12,155.52L262.88,132.87C262.72,132.756,262.574,132.625,262.445,132.477C262.315,132.33,262.203,132.168,262.11,131.996C262.018,131.823,261.946,131.64,261.895,131.45C261.844,131.261,261.816,131.066,261.81,130.87L261.81,85C261.81,84.21,262.29,83.86,262.88,84.19L302.12,106.85C302.279,106.964,302.425,107.096,302.553,107.243C302.682,107.391,302.793,107.552,302.885,107.725C302.977,107.898,303.048,108.081,303.098,108.271C303.147,108.46,303.175,108.654,303.18,108.85L303.18,154.65C303.18,155.5,302.71,155.86,302.12,155.52Z" fill="url(#Gradient-17)"/>
    <ellipse rx="9.94" ry="17.22" fill="none" stroke="url(#Gradient-18)" stroke-miterlimit="10" stroke-width="2px" transform="translate(-21.9,157.46) rotate(-30) translate(282.88,119.6)"/>
    <path d="M285.12,124.14L280.62,121.54L280.62,121L282.53,119.8C282.632,119.743,282.732,119.683,282.83,119.62C282.928,119.557,283.025,119.491,283.119,119.423C283.213,119.354,283.306,119.283,283.396,119.209C283.486,119.136,283.574,119.059,283.66,118.98C283.712,118.931,283.761,118.879,283.807,118.825C283.854,118.771,283.897,118.715,283.938,118.656C283.978,118.597,284.015,118.536,284.049,118.473C284.083,118.411,284.113,118.346,284.14,118.28C284.166,118.209,284.189,118.137,284.209,118.064C284.229,117.991,284.245,117.917,284.257,117.842C284.27,117.767,284.279,117.692,284.284,117.617C284.29,117.541,284.292,117.466,284.29,117.39C284.289,117.263,284.279,117.135,284.26,117.009C284.241,116.883,284.214,116.759,284.179,116.636C284.143,116.514,284.1,116.394,284.048,116.278C283.996,116.161,283.937,116.048,283.87,115.94C283.804,115.827,283.731,115.718,283.651,115.614C283.571,115.51,283.484,115.411,283.391,115.319C283.299,115.226,283.2,115.139,283.096,115.059C282.992,114.979,282.883,114.906,282.77,114.84C282.645,114.757,282.512,114.688,282.372,114.635C282.231,114.582,282.086,114.544,281.937,114.524C281.789,114.503,281.639,114.499,281.489,114.512C281.34,114.525,281.193,114.554,281.05,114.6L280.79,114.06C280.955,114.002,281.127,113.963,281.301,113.946C281.475,113.928,281.651,113.931,281.824,113.956C281.998,113.98,282.168,114.025,282.33,114.09C282.493,114.154,282.647,114.238,282.79,114.34C282.942,114.424,283.088,114.519,283.227,114.622C283.366,114.725,283.499,114.838,283.624,114.958C283.748,115.079,283.865,115.207,283.973,115.343C284.081,115.479,284.18,115.621,284.27,115.77C284.358,115.912,284.436,116.06,284.503,116.212C284.571,116.365,284.627,116.522,284.673,116.682C284.718,116.843,284.753,117.006,284.776,117.171C284.799,117.337,284.81,117.503,284.81,117.67C284.814,117.791,284.809,117.913,284.796,118.033C284.783,118.154,284.761,118.273,284.73,118.391C284.7,118.508,284.661,118.624,284.614,118.736C284.567,118.847,284.512,118.956,284.45,119.06C284.362,119.177,284.268,119.289,284.169,119.395C284.069,119.502,283.963,119.603,283.852,119.698C283.741,119.792,283.625,119.881,283.505,119.964C283.384,120.046,283.259,120.121,283.13,120.19L281.29,121.31L281.29,121.31L285.13,123.53Z" stroke="#f6f7f8" stroke-miterlimit="10"/>
    <path d="M302.12,211.61L262.88,189C262.72,188.886,262.574,188.755,262.445,188.607C262.315,188.46,262.203,188.298,262.11,188.126C262.018,187.953,261.946,187.77,261.895,187.58C261.844,187.391,261.816,187.196,261.81,187L261.81,141.2C261.81,140.42,262.29,140.06,262.88,140.4L302.12,163C302.28,163.113,302.427,163.244,302.556,163.391C302.686,163.538,302.798,163.7,302.889,163.873C302.981,164.046,303.052,164.23,303.101,164.419C303.15,164.609,303.177,164.804,303.18,165L303.18,210.8C303.18,211.59,302.71,212,302.12,211.61Z" fill="url(#Gradient-19)"/>
    <ellipse rx="9.92" ry="17.19" fill="none" stroke="url(#Gradient-20)" stroke-miterlimit="10" stroke-width="2px" opacity="1" transform="translate(-50.21,164.4) rotate(-30) translate(281.67,175.9)" style="animation: 13s linear infinite both a4_o;"/>
    <path d="M284.8,178.83L283.47,178.07L283.47,180.33L283,180L283,177.74L279,175.51L279,175.1L282.8,171.1L283.43,171.46L283.43,177.59L284.76,178.35ZM283,177.26L283,174.73C283,173.51,283,172.5,283.07,171.73L283.07,171.73C283.02,171.796,282.97,171.862,282.918,171.927C282.867,171.992,282.814,172.056,282.761,172.119C282.708,172.183,282.653,172.245,282.598,172.307C282.543,172.369,282.487,172.43,282.43,172.49L279.72,175.4Z" stroke="#f6f7f8" stroke-miterlimit="10" opacity="1" transform="translate(0,1)" style="animation: 13s linear infinite both a5_o;"/>
    <path id="five" d="M415.72,226.51C415.923,226.626,416.119,226.755,416.307,226.895C416.494,227.035,416.672,227.187,416.841,227.35C417.009,227.512,417.167,227.685,417.314,227.868C417.461,228.05,417.597,228.241,417.72,228.44C417.839,228.629,417.945,228.826,418.037,229.03C418.129,229.234,418.206,229.443,418.268,229.658C418.331,229.873,418.378,230.091,418.41,230.312C418.442,230.533,418.459,230.757,418.46,230.98C418.46,231.98,418.18,232.65,417.62,232.91C417.415,232.963,417.205,232.992,416.994,232.997C416.783,233.001,416.571,232.981,416.365,232.937C416.158,232.893,415.957,232.825,415.766,232.735C415.575,232.644,415.395,232.532,415.23,232.4C415.021,232.286,414.818,232.163,414.621,232.03C414.424,231.897,414.232,231.756,414.048,231.606C413.864,231.456,413.686,231.297,413.516,231.131C413.346,230.965,413.184,230.791,413.03,230.61L413.03,229.2C413.11,229.298,413.192,229.394,413.276,229.488C413.36,229.582,413.447,229.674,413.535,229.764C413.624,229.854,413.714,229.942,413.807,230.028C413.899,230.114,413.994,230.198,414.09,230.28C414.177,230.357,414.265,230.432,414.355,230.504C414.446,230.577,414.537,230.648,414.631,230.716C414.724,230.784,414.819,230.851,414.916,230.915C415.013,230.979,415.111,231.041,415.21,231.1C415.817,231.453,416.277,231.563,416.59,231.43C416.903,231.297,417.063,230.927,417.07,230.32C417.058,230.02,417.005,229.723,416.912,229.438C416.818,229.153,416.686,228.882,416.518,228.633C416.35,228.384,416.148,228.16,415.919,227.967C415.689,227.773,415.434,227.613,415.16,227.49C415.106,227.459,415.052,227.429,414.997,227.4C414.943,227.371,414.887,227.343,414.831,227.317C414.775,227.29,414.719,227.264,414.662,227.24C414.605,227.216,414.548,227.192,414.49,227.17C414.434,227.145,414.377,227.121,414.32,227.098C414.263,227.075,414.206,227.053,414.148,227.031C414.091,227.009,414.033,226.988,413.975,226.968C413.917,226.948,413.859,226.929,413.8,226.91L413.2,226.15L413.52,221.62L417.87,224.13L417.87,225.51L414.7,223.68L414.52,225.97L415.01,226.16C415.071,226.184,415.132,226.21,415.193,226.237C415.253,226.264,415.313,226.292,415.372,226.321C415.431,226.35,415.49,226.38,415.548,226.412C415.606,226.444,415.663,226.476,415.72,226.51Z" fill="#f6f7f8" opacity="0" transform="translate(-134.5,-51.5)" style="animation: 13s linear infinite both five_o;"/>
    <ellipse id="radius-chart" rx="9.94" ry="17.22" fill="none" stroke="url(#Gradient-18)" stroke-miterlimit="10" stroke-width="2px" opacity="1" transform="translate(-23.073,213.776) rotate(-30) translate(282.88,119.6)" style="animation: 13s linear infinite both radius-chart_o;"/>
    <g id="good-p" opacity="1" transform="translate(517.258,335.61) translate(-12.7182,-6.92688)" style="animation: 13s linear infinite both good-p_t, 13s linear infinite both good-p_o;">
        <ellipse rx="11.97" ry="6.91" fill="#f6f7f8" transform="translate(-508.186,-156.59) translate(520.82,163.5)"/>
        <path d="M529.91,158.69C524.91,156,516.84,156,511.91,158.69C506.98,161.38,506.91,165.75,511.91,168.43C516.91,171.11,524.98,171.12,529.91,168.43C534.84,165.74,534.88,161.37,529.91,158.69ZM529.31,164.94L515.4,164.94C514.82,164.94,514.34,164.68,514.34,164.37L514.34,161.19C514.34,160.43,516.46,160.43,516.46,161.19L516.46,163.8L529.31,163.8C530.7,163.79,530.71,164.93,529.31,164.94Z" fill="url(#Gradient-9)" fill-rule="evenodd" transform="translate(-508.186,-156.59)"/>
    </g>
    <g transform="translate(450.4,342.35) translate(-73.17,-46.44)" style="animation: 13s linear infinite both a6_t;">
        <path d="M454.44,304.58L523.08,344.2L445.87,388.79L377.23,349.16L454.44,304.58Z" fill="#263d5d" opacity="0.06" transform="translate(-377.23,-295.91)"/>
        <g id="Website_right_down-3" data-name="Website right down" transform="translate(-377.23,-295.91)">
            <path d="M454.94,295.91L523.57,335.54L446.36,380.12L377.72,340.49L454.94,295.91Z" fill="url(#Gradient-21)"/>
        </g>
        <path d="M442.32,350.76L441.77,349.54L440.44,349.68L439.89,348.46L438.57,348.6L438.02,347.38L436.7,347.52L436.15,346.3L434.83,346.44L434.28,345.22L432.96,345.36L432.42,344.14L431.1,344.28L430.42,342.76C430.394,342.704,430.379,342.643,430.377,342.581C430.375,342.519,430.385,342.457,430.408,342.399C430.43,342.341,430.464,342.288,430.507,342.244C430.551,342.199,430.603,342.164,430.66,342.14C430.716,342.114,430.776,342.099,430.837,342.097C430.899,342.095,430.96,342.106,431.017,342.128C431.074,342.151,431.126,342.185,431.169,342.228C431.213,342.271,431.247,342.323,431.27,342.38L431.67,343.28L433,343.14L433.53,344.36L434.86,344.22L435.4,345.44L436.73,345.3L437.27,346.52L438.6,346.38L439.14,347.6L440.47,347.46L441.01,348.68L442.35,348.54L442.89,349.76L443.89,349.66C443.951,349.654,444.012,349.661,444.071,349.679C444.13,349.697,444.184,349.726,444.231,349.765C444.279,349.804,444.318,349.852,444.347,349.906C444.376,349.96,444.394,350.019,444.4,350.08C444.407,350.14,444.402,350.202,444.385,350.26C444.368,350.319,444.34,350.373,444.302,350.421C444.263,350.468,444.216,350.507,444.163,350.537C444.109,350.566,444.051,350.584,443.99,350.59Z" fill="url(#Gradient-22)" transform="translate(-377.23,-295.91)"/>
        <path d="M437.58,354.34C437.349,354.458,437.104,354.548,436.851,354.609C436.599,354.67,436.34,354.701,436.08,354.701C435.82,354.701,435.561,354.67,435.309,354.609C435.056,354.548,434.811,354.458,434.58,354.34L425.89,349.34C425.715,349.276,425.563,349.16,425.456,349.007C425.349,348.854,425.292,348.672,425.292,348.485C425.292,348.298,425.349,348.116,425.456,347.963C425.563,347.81,425.715,347.694,425.89,347.63L427.65,346.63C427.881,346.511,428.126,346.419,428.378,346.358C428.631,346.297,428.89,346.266,429.15,346.266C429.41,346.266,429.669,346.297,429.922,346.358C430.174,346.419,430.419,346.511,430.65,346.63L439.33,351.63C439.509,351.692,439.664,351.808,439.774,351.962C439.884,352.116,439.943,352.301,439.943,352.49C439.943,352.679,439.884,352.864,439.774,353.018C439.664,353.172,439.509,353.288,439.33,353.35Z" fill="#f6f7f8" transform="translate(-377.23,-295.91)"/>
        <g id="Website_middle_down-2" data-name="Website middle down" transform="translate(-289.23,-243.91)">
            <g opacity="0.8">
                <ellipse id="Oval-7" rx="1.13" ry="0.64" fill="#f6f7f8" transform="translate(-1.3,1.9) rotate(-0.3) translate(366.05,252.18)"/>
                <ellipse id="Oval-8" data-name="Oval" rx="1.13" ry="0.64" fill="#f6f7f8" transform="translate(-1.31,1.91) rotate(-0.3) translate(368.63,253.68)"/>
                <ellipse id="Oval-9" data-name="Oval" rx="1.13" ry="0.64" fill="#f6f7f8" transform="translate(-1.32,1.93) rotate(-0.3) translate(371.3,255.22)"/>
            </g>
            <path d="M365.79,258.68L362.57,256.82C362.48,256.77,362.49,256.67,362.57,256.61L362.63,256.61C362.658,256.595,362.689,256.584,362.72,256.576C362.751,256.569,362.783,256.565,362.815,256.565C362.847,256.565,362.879,256.569,362.91,256.576C362.941,256.584,362.972,256.595,363,256.61L366.21,258.46C366.31,258.52,366.3,258.62,366.21,258.68L366.15,258.68C366.122,258.694,366.093,258.704,366.062,258.711C366.032,258.718,366.001,258.722,365.97,258.722C365.939,258.722,365.908,258.718,365.878,258.711C365.847,258.704,365.818,258.694,365.79,258.68Z" fill="#f6f7f8"/>
            <path d="M370.88,261.58L367.67,259.73C367.57,259.67,367.58,259.58,367.67,259.52L367.73,259.52C367.758,259.505,367.789,259.494,367.82,259.486C367.851,259.479,367.883,259.475,367.915,259.475C367.947,259.475,367.979,259.479,368.01,259.486C368.041,259.494,368.072,259.505,368.1,259.52L371.32,261.37C371.41,261.43,371.4,261.52,371.32,261.59L371.26,261.59C371.231,261.605,371.199,261.616,371.167,261.623C371.135,261.631,371.102,261.634,371.069,261.633C371.036,261.632,371.003,261.627,370.971,261.618C370.939,261.609,370.909,261.596,370.88,261.58Z" fill="#f6f7f8"/>
            <path d="M357.78,260.58L365.76,265.19" fill="#fdfeff" opacity="0.8" stroke="#f6f7f8" stroke-linecap="round" stroke-miterlimit="10" stroke-width="0.5px"/>
            <path d="M368.35,266.72L373.67,269.8" fill="#fdfeff" opacity="0.8" stroke="#f6f7f8" stroke-linecap="round" stroke-miterlimit="10" stroke-width="0.5px"/>
            <path d="M376.33,271.33L386.98,277.48" fill="#fdfeff" opacity="0.8" stroke="#f6f7f8" stroke-linecap="round" stroke-miterlimit="10" stroke-width="0.5px"/>
            <path d="M389.64,279.01L397.62,283.62" fill="#fdfeff" opacity="0.8" stroke="#f6f7f8" stroke-linecap="round" stroke-miterlimit="10" stroke-width="0.5px"/>
            <path d="M400.28,285.16L405.6,288.23" fill="#fdfeff" opacity="0.8" stroke="#f6f7f8" stroke-linecap="round" stroke-miterlimit="10" stroke-width="0.5px"/>
            <path d="M390.89,275L377.59,267.32C377.38,267.2,377.4,266.98,377.65,266.84L379.1,266C379.165,265.967,379.233,265.942,379.304,265.925C379.375,265.908,379.447,265.9,379.52,265.9C379.593,265.9,379.665,265.908,379.736,265.925C379.807,265.942,379.875,265.967,379.94,266L393.24,273.67C393.45,273.8,393.43,274.01,393.18,274.16L391.73,274.99C391.666,275.024,391.597,275.05,391.527,275.067C391.456,275.085,391.384,275.094,391.311,275.095C391.238,275.096,391.166,275.088,391.095,275.072C391.024,275.056,390.955,275.032,390.89,275Z" fill="#f6f7f8"/>
            <path d="M410.56,288L401.76,282.91C401.54,282.79,401.57,282.57,401.82,282.43L403.27,281.59C403.334,281.557,403.402,281.532,403.472,281.515C403.541,281.498,403.613,281.49,403.685,281.49C403.757,281.49,403.829,281.498,403.898,281.515C403.968,281.532,404.036,281.557,404.1,281.59L412.91,286.67C413.12,286.8,413.09,287.01,412.85,287.16L411.4,287.99C411.336,288.024,411.267,288.05,411.197,288.067C411.126,288.085,411.054,288.094,410.981,288.095C410.908,288.096,410.836,288.088,410.765,288.072C410.694,288.056,410.625,288.032,410.56,288Z" fill="#f6f7f8"/>
            <path d="M362.37,290.06L330.38,271.59L347.14,261.91L379.14,280.38L362.37,290.06Z" fill="url(#Gradient-7)"/>
            <path d="M387.4,304.37L364.76,291.3L381.53,281.62L404.17,294.69L387.4,304.37Z" fill="url(#Gradient-8)"/>
            <ellipse id="Oval-10" data-name="Oval" rx="0.83" ry="0.47" fill="#87e2f2" opacity="0.8" transform="translate(-1.5,1.83) rotate(-0.3) translate(353.51,290.38)"/>
            <ellipse id="Oval-11" data-name="Oval" rx="0.83" ry="0.47" fill="#87e2f2" opacity="0.5" transform="translate(-1.5,1.84) rotate(-0.3) translate(355,291.25)"/>
            <ellipse id="Oval-12" data-name="Oval" rx="0.83" ry="0.47" fill="#87e2f2" opacity="0.5" transform="translate(-1.51,1.85) rotate(-0.3) translate(356.56,292.15)"/>
        </g>
    </g>
    <g id="low-2" opacity="0" transform="translate(1.33333,0)" style="animation: 13s linear infinite both low-2_o;">
        <ellipse rx="12.18" ry="7.03" fill="url(#Gradient-23)" transform="translate(0,0) translate(427.45,283.22)"/>
        <path d="M433.63,282L426.63,282.37C426.27,282.37,426.09,282.62,426.35,282.77L427.35,283.35C427.46,283.41,427.41,283.52,427.26,283.54L421.26,284.38L428.88,284.05C429.22,284.05,429.37,283.8,429.13,283.66L428.24,283.14C428.12,283.08,428.19,282.97,428.35,282.95Z" fill="#f6f7f8"/>
    </g>
    <g id="low-1" opacity="0" transform="translate(99.31,-58.01)" style="animation: 13s linear infinite both low-1_o;">
        <ellipse rx="12.18" ry="7.03" fill="url(#Gradient-23)" transform="translate(0,0) translate(427.45,283.22)"/>
        <path d="M433.63,282L426.63,282.37C426.27,282.37,426.09,282.62,426.35,282.77L427.35,283.35C427.46,283.41,427.41,283.52,427.26,283.54L421.26,284.38L428.88,284.05C429.22,284.05,429.37,283.8,429.13,283.66L428.24,283.14C428.12,283.08,428.19,282.97,428.35,282.95Z" fill="#f6f7f8"/>
    </g>
    <g id="low" opacity="0" transform="translate(90.3592,51.8363)" style="animation: 13s linear infinite both low_o;">
        <ellipse rx="12.18" ry="7.03" fill="url(#Gradient-23)" transform="translate(0,0) translate(427.45,283.22)"/>
        <path d="M433.63,282L426.63,282.37C426.27,282.37,426.09,282.62,426.35,282.77L427.35,283.35C427.46,283.41,427.41,283.52,427.26,283.54L421.26,284.38L428.88,284.05C429.22,284.05,429.37,283.8,429.13,283.66L428.24,283.14C428.12,283.08,428.19,282.97,428.35,282.95Z" fill="#f6f7f8"/>
    </g>
</svg>
