<svg width="1067" height="610" viewBox="0 0 1067 610" fill="none" xmlns="http://www.w3.org/2000/svg">
<path fill-rule="evenodd" clip-rule="evenodd" d="M169.225 514.215H459.357C465.836 514.215 471.088 508.964 471.088 502.487V11.7287C471.088 5.25155 465.836 0 459.357 0H169.225C162.746 0 157.494 5.25155 157.494 11.7287V502.487C157.494 508.964 162.746 514.215 169.225 514.215" fill="#E1E7F5"/>
<path fill-rule="evenodd" clip-rule="evenodd" d="M159.003 103.028H455.641C460.323 103.028 464.119 99.2322 464.119 94.5499V15.4437C464.119 10.7621 460.323 6.9668 455.641 6.9668H159.003C154.321 6.9668 150.525 10.7621 150.525 15.4437V94.5499C150.525 99.2322 154.321 103.028 159.003 103.028" fill="#F2F5FE"/>
<path fill-rule="evenodd" clip-rule="evenodd" d="M159.003 211.584H455.641C460.323 211.584 464.119 207.789 464.119 203.107V124C464.119 119.319 460.323 115.523 455.641 115.523H159.003C154.321 115.523 150.525 119.319 150.525 124V203.107C150.525 207.789 154.321 211.584 159.003 211.584" fill="#E1E7F5"/>
<path fill-rule="evenodd" clip-rule="evenodd" d="M744.222 157.27H664.119C660.849 157.27 658.198 154.618 658.198 151.347V97.6872C658.198 94.416 660.849 91.7637 664.119 91.7637H744.222C747.491 91.7637 750.142 94.416 750.142 97.6872V151.347C750.142 154.618 747.491 157.27 744.222 157.27" fill="#E1E7F5"/>
<path fill-rule="evenodd" clip-rule="evenodd" d="M870.646 219.989H793.068C789.798 219.989 787.147 217.337 787.147 214.066V128.349C787.147 125.078 789.798 122.426 793.068 122.426H870.646V219.989Z" fill="#E1E7F5"/>
<path fill-rule="evenodd" clip-rule="evenodd" d="M1007.79 360.768C995.56 334.045 985.922 337.881 968.548 313.1C954.117 292.515 946.172 261.629 949.679 259.45C953.187 257.272 960.447 280.077 982.79 291.071C1004.03 301.524 1015.63 348.002 1015.63 348.002" fill="#E1E7F5"/>
<path fill-rule="evenodd" clip-rule="evenodd" d="M1001.9 341.524C1001.9 341.524 971.993 263.545 964.68 235.322C957.366 207.098 959.787 153.296 964.672 153.019C969.555 152.741 970.252 203.265 991.497 226.262C1012.74 249.259 1018.55 343.912 1018.55 343.912L1001.9 341.524Z" fill="#E1E7F5"/>
<path fill-rule="evenodd" clip-rule="evenodd" d="M1007.69 348.533C1007.21 348.109 1006.95 347.469 1006.98 346.823C1011.99 249.747 1004.6 269.929 1005.08 202.916C1005.36 163.678 1013.45 149.677 1016.34 123.843C1016.59 121.565 1019.78 121.247 1020.46 123.434C1025.47 139.429 1034.15 155.432 1032.94 197.69C1031.05 263.835 1023.67 258.766 1022.75 345.437C1022.73 346.594 1021.8 347.567 1020.64 347.544C1015.14 347.433 1013.54 353.6 1007.69 348.533" fill="#E1E7F5"/>
<path fill-rule="evenodd" clip-rule="evenodd" d="M1016.68 358.726C1016.68 358.726 1012.97 283.637 1032.25 253.439C1051.52 223.241 1046.39 212.295 1049.65 212.89C1052.91 213.485 1059.02 234.049 1053.97 260.649C1046.41 300.492 1029.94 350.781 1029.94 350.781L1016.68 358.726Z" fill="#E1E7F5"/>
<path fill-rule="evenodd" clip-rule="evenodd" d="M1020.72 348.629C1020.72 348.629 1025.05 320.341 1042.69 305.706C1060.34 291.072 1061.58 280.451 1064.67 281.232C1067.77 282.012 1067.88 295.284 1060.35 310.356C1050.79 329.486 1036.44 350.988 1036.44 350.988L1020.72 348.629Z" fill="#E1E7F5"/>
<path fill-rule="evenodd" clip-rule="evenodd" d="M1063.09 380.242V338.994C1063.09 338.994 1050.01 340.782 1014.48 340.782C978.959 340.782 960.504 338.994 960.504 338.994V380.242C960.504 380.242 959.265 481.241 1011.84 481.241C1064.41 481.241 1063.09 380.242 1063.09 380.242" fill="#F2F5FE"/>
<path fill-rule="evenodd" clip-rule="evenodd" d="M650.071 579.348C650.071 579.348 651.464 551.008 685.828 531.031C720.191 511.054 761.519 528.243 761.519 528.243L721.119 586.781L650.071 579.348Z" fill="#223C5B"/>
<path fill-rule="evenodd" clip-rule="evenodd" d="M421.364 103.965H449.294V29.5612C449.294 28.5414 448.469 27.7148 447.452 27.7148H423.206C422.189 27.7148 421.364 28.5414 421.364 29.5612V103.965Z" fill="#E1E7F5"/>
<path fill-rule="evenodd" clip-rule="evenodd" d="M435.096 67.1036V67.1036C432.28 67.1036 429.976 64.7939 429.976 61.9712V44.2398C429.976 41.4171 432.28 39.1074 435.096 39.1074C437.913 39.1074 440.217 41.4171 440.217 44.2398V61.9712C440.217 64.7939 437.913 67.1036 435.096 67.1036" fill="#F2F5FE"/>
<path fill-rule="evenodd" clip-rule="evenodd" d="M389.943 103.965H417.873V29.5612C417.873 28.5414 417.048 27.7148 416.031 27.7148H391.785C390.768 27.7148 389.943 28.5414 389.943 29.5612V103.965Z" fill="#E1E7F5"/>
<path fill-rule="evenodd" clip-rule="evenodd" d="M403.675 67.1036V67.1036C400.859 67.1036 398.555 64.7939 398.555 61.9712V44.2398C398.555 41.4171 400.859 39.1074 403.675 39.1074C406.492 39.1074 408.796 41.4171 408.796 44.2398V61.9712C408.796 64.7939 406.492 67.1036 403.675 67.1036" fill="#F2F5FE"/>
<path fill-rule="evenodd" clip-rule="evenodd" d="M358.522 103.965H386.452V29.5612C386.452 28.5414 385.627 27.7148 384.61 27.7148H360.364C359.347 27.7148 358.522 28.5414 358.522 29.5612V103.965Z" fill="#E1E7F5"/>
<path fill-rule="evenodd" clip-rule="evenodd" d="M372.254 67.1036V67.1036C369.438 67.1036 367.134 64.7939 367.134 61.9712V44.2398C367.134 41.4171 369.438 39.1074 372.254 39.1074C375.071 39.1074 377.374 41.4171 377.374 44.2398V61.9712C377.374 64.7939 375.071 67.1036 372.254 67.1036" fill="#F2F5FE"/>
<path fill-rule="evenodd" clip-rule="evenodd" d="M327.101 103.965H355.031V29.5612C355.031 28.5414 354.206 27.7148 353.189 27.7148H328.943C327.926 27.7148 327.101 28.5414 327.101 29.5612V103.965Z" fill="#E1E7F5"/>
<path fill-rule="evenodd" clip-rule="evenodd" d="M340.833 67.1036V67.1036C338.017 67.1036 335.713 64.7939 335.713 61.9712V44.2398C335.713 41.4171 338.017 39.1074 340.833 39.1074C343.65 39.1074 345.953 41.4171 345.953 44.2398V61.9712C345.953 64.7939 343.65 67.1036 340.833 67.1036" fill="#F2F5FE"/>
<path fill-rule="evenodd" clip-rule="evenodd" d="M294.982 103.965H322.912V29.5612C322.912 28.5414 322.087 27.7148 321.07 27.7148H296.824C295.807 27.7148 294.982 28.5414 294.982 29.5612V103.965Z" fill="#E1E7F5"/>
<path fill-rule="evenodd" clip-rule="evenodd" d="M308.714 67.1036V67.1036C305.898 67.1036 303.594 64.7939 303.594 61.9712V44.2398C303.594 41.4171 305.898 39.1074 308.714 39.1074C311.531 39.1074 313.834 41.4171 313.834 44.2398V61.9712C313.834 64.7939 311.531 67.1036 308.714 67.1036" fill="#F2F5FE"/>
<path fill-rule="evenodd" clip-rule="evenodd" d="M262.863 103.965H290.792V29.5612C290.792 28.5414 289.968 27.7148 288.95 27.7148H264.705C263.687 27.7148 262.863 28.5414 262.863 29.5612V103.965Z" fill="#E1E7F5"/>
<path fill-rule="evenodd" clip-rule="evenodd" d="M276.595 67.1036V67.1036C273.779 67.1036 271.474 64.7939 271.474 61.9712V44.2398C271.474 41.4171 273.779 39.1074 276.595 39.1074C279.411 39.1074 281.715 41.4171 281.715 44.2398V61.9712C281.715 64.7939 279.411 67.1036 276.595 67.1036" fill="#F2F5FE"/>
<path fill-rule="evenodd" clip-rule="evenodd" d="M230.743 103.965H258.673V29.5612C258.673 28.5414 257.849 27.7148 256.831 27.7148H232.585C231.568 27.7148 230.743 28.5414 230.743 29.5612V103.965Z" fill="#E1E7F5"/>
<path fill-rule="evenodd" clip-rule="evenodd" d="M244.475 67.1036V67.1036C241.659 67.1036 239.355 64.7939 239.355 61.9712V44.2398C239.355 41.4171 241.659 39.1074 244.475 39.1074C247.292 39.1074 249.596 41.4171 249.596 44.2398V61.9712C249.596 64.7939 247.292 67.1036 244.475 67.1036" fill="#F2F5FE"/>
<path fill-rule="evenodd" clip-rule="evenodd" d="M229.323 421.007C229.323 421.007 228.858 393.18 223.287 359.323C217.716 325.466 226.537 307.378 255.321 306.451C284.106 305.523 268.321 416.37 268.321 416.37L229.323 421.007Z" fill="white"/>
<path fill-rule="evenodd" clip-rule="evenodd" d="M250.679 325.117C250.679 325.117 232.224 344.596 251.027 379.729C269.83 414.861 264.955 325.117 250.679 325.117" fill="#F2F5FE"/>
<path fill-rule="evenodd" clip-rule="evenodd" d="M897.844 306.933C897.844 306.933 891.016 321.444 898.637 327.961C906.258 334.476 918.133 328.849 917.341 325.394C916.549 321.938 910.513 325.887 910.513 325.887C910.513 325.887 914.174 324.802 914.471 323.913C914.768 323.024 917.341 310.388 911.008 308.512C904.674 306.637 897.844 306.933 897.844 306.933" fill="#4476B2"/>
<path fill-rule="evenodd" clip-rule="evenodd" d="M823.007 309.27C823.007 309.27 807.38 368.389 823.5 385.148C837.189 384.443 901.631 438.071 906.746 406.533C911.86 374.995 916.409 334.909 898.748 301.078C866.863 310.77 823.007 309.27 823.007 309.27" fill="#376193"/>
<mask id="mask0" mask-type="alpha" maskUnits="userSpaceOnUse" x="815" y="301" width="96" height="109">
<path fill-rule="evenodd" clip-rule="evenodd" d="M822.391 309.895C822.391 309.895 806.577 369.117 822.708 385.891V385.891C828.064 385.754 840.928 391.758 854.944 397.762V397.762C876.772 407.114 901.394 416.466 904.794 402.611V402.611C910.378 379.863 915.86 335.559 898.186 301.695V301.695C866.279 311.398 822.391 309.895 822.391 309.895V309.895Z" fill="white"/>
</mask>
<g mask="url(#mask0)">
<path fill-rule="evenodd" clip-rule="evenodd" d="M868.812 313.966C868.812 313.966 825.566 315.73 826.744 330.192C827.922 344.653 846.659 346.653 845.834 352.531C845.009 358.409 830.043 366.405 834.757 379.574C839.471 392.741 816.963 388.039 816.963 388.039L803.648 344.889L822.855 305.031L868.812 313.966Z" fill="#2D4E76"/>
</g>
<path fill-rule="evenodd" clip-rule="evenodd" d="M886.114 203.475C887.116 203.725 923.049 242.729 925.168 252.37C927.286 262.011 918.46 309.041 914.694 313.745C910.408 319.098 900.292 313.71 900.292 313.71L905.398 262.952C886.941 241.437 886.757 242.013 884.754 240.098C878.99 234.59 886.114 203.475 886.114 203.475" fill="#376193"/>
<path fill-rule="evenodd" clip-rule="evenodd" d="M826.615 226.327C826.615 226.327 820.801 264.888 815.43 281.924C814.201 285.821 813.295 289.803 812.653 293.837C811.223 302.817 806.795 320.252 793.098 339.876C793.098 341.002 786.144 352.832 786.144 352.832L773.363 340.251C773.363 340.251 777.029 314.111 787.248 294.505C790.544 288.181 792.647 281.309 793.2 274.2C794.202 261.321 799.479 247.514 800.966 238.874C803.034 226.855 809.47 206.281 821.875 204.402C834.28 202.525 826.615 226.327 826.615 226.327" fill="#4476B2"/>
<path fill-rule="evenodd" clip-rule="evenodd" d="M820.35 309.202C820.35 309.202 871.097 323.912 900.417 301.003C900.417 301.003 896.235 289.055 893.841 276.863C892.438 269.713 890.237 257.889 892.809 251.071C898.619 235.666 879.742 195.591 879.742 195.091C879.742 194.781 869.022 193.273 851.737 193.816C837.576 194.26 816.839 196.252 812.268 199.973C817.389 207.535 810.595 241.238 820.09 253.758C824.842 260.023 826.754 267.985 825.961 275.807C824.955 285.738 823.16 296.824 820.35 309.202" fill="#4476B2"/>
<mask id="mask1" mask-type="alpha" maskUnits="userSpaceOnUse" x="773" y="204" width="57" height="149">
<path fill-rule="evenodd" clip-rule="evenodd" d="M821.914 204.414C809.5 206.292 803.058 226.864 800.988 238.881V238.881C799.5 247.521 794.22 261.327 793.216 274.206V274.206C792.662 281.314 790.558 288.185 787.259 294.509V294.509C777.032 314.113 773.364 340.251 773.364 340.251V340.251L786.154 352.831C786.154 352.831 793.114 341.002 793.114 339.875V339.875C806.821 320.253 811.253 302.82 812.684 293.84V293.84C813.328 289.807 814.234 285.824 815.463 281.928V281.928C820.839 264.894 826.658 226.337 826.658 226.337V226.337C826.658 226.337 833.76 204.307 823.242 204.309V204.309C822.828 204.309 822.385 204.343 821.914 204.414" fill="white"/>
</mask>
<g mask="url(#mask1)">
<path fill-rule="evenodd" clip-rule="evenodd" d="M830.844 216.519C830.844 216.519 808 223.482 809.22 245.938C810.441 268.395 789.515 272.921 787.248 291.547C784.981 310.174 786.027 230.097 786.027 230.097C786.027 230.097 803.815 197.893 804.512 197.893C805.21 197.893 830.844 216.519 830.844 216.519" fill="#376193"/>
</g>
<path fill-rule="evenodd" clip-rule="evenodd" d="M850.2 183.697L841.774 209.361L866.299 211.489C866.299 211.489 874.851 192.711 874.599 189.456C874.348 186.201 850.2 183.697 850.2 183.697" fill="#EA9C00"/>
<path fill-rule="evenodd" clip-rule="evenodd" d="M877.526 204.351C877.526 204.351 871.887 239.974 856.796 239.724C841.704 239.474 825.333 211.862 828.728 197.215C832.124 182.568 860.296 190.205 860.296 190.205L877.526 204.351Z" fill="#E8CFB8"/>
<mask id="mask2" mask-type="alpha" maskUnits="userSpaceOnUse" x="828" y="188" width="50" height="52">
<path fill-rule="evenodd" clip-rule="evenodd" d="M828.728 197.281C825.332 211.907 841.472 239.611 856.563 239.962V239.962C872.694 240.337 877.526 204.407 877.526 204.407V204.407L860.296 190.28C860.296 190.28 852.955 188.293 845.316 188.293V188.293C837.991 188.294 830.39 190.121 828.728 197.281V197.281Z" fill="white"/>
</mask>
<g mask="url(#mask2)">
<path fill-rule="evenodd" clip-rule="evenodd" d="M853.861 192.344C853.861 192.344 858.054 202.734 853.684 206.374C849.313 210.014 847.128 220.229 850.494 226.04C853.861 231.851 844.765 237.312 839.096 233.848C833.426 230.384 828.229 237.604 828.229 237.604L852.03 247.878L886.403 234.728L883.804 215.356L874.058 195.748C874.058 195.748 867.798 188.293 867.385 188.293C866.971 188.293 856.282 188.997 856.282 188.997L853.861 192.344Z" fill="#D1A193"/>
</g>
<path fill-rule="evenodd" clip-rule="evenodd" d="M869.46 179.699C869.46 179.699 854.96 201.646 837.46 200.384C820.209 191.555 808.928 162.982 823.679 133.719C838.429 104.456 885.461 143.373 869.46 179.699" fill="#E8CFB8"/>
<mask id="mask3" mask-type="alpha" maskUnits="userSpaceOnUse" x="816" y="123" width="57" height="78">
<path fill-rule="evenodd" clip-rule="evenodd" d="M823.619 133.747C808.842 162.938 820.142 191.443 837.424 200.251V200.251C854.956 201.509 869.483 179.616 869.483 179.616V179.616C881.57 152.291 857.758 123.497 838.975 123.5V123.5C832.848 123.501 827.254 126.566 823.619 133.747" fill="white"/>
</mask>
<g mask="url(#mask3)">
<path fill-rule="evenodd" clip-rule="evenodd" d="M829.735 150.528C829.735 150.528 834.674 158.918 841.378 162.7C848.082 166.481 852.081 173.217 850.082 182.788C848.082 192.36 840.79 191.533 840.555 200.869C840.32 210.204 869.488 203.35 869.488 203.35L871.252 165.418C871.252 165.418 846.083 143.91 845.612 143.91C845.142 143.91 829.735 150.528 829.735 150.528" fill="#D1A193"/>
</g>
<path fill-rule="evenodd" clip-rule="evenodd" d="M824.021 136.893C824.021 136.893 830.596 163.334 856.634 164.522C859.515 169.703 862.782 187.046 861.766 196.42C860.748 205.794 853.342 214.817 853.342 214.817C853.342 214.817 873.856 213.048 884.083 208.448C894.311 203.848 901.364 193.115 902.539 183.444C886.199 169.29 884.729 136.147 873.004 124.234C859.397 109.492 846.936 114.091 839.291 118.181C832.36 115.624 822.685 119.152 816.137 129.896C799.209 157.673 818.089 197.569 809.096 214.2C809.096 214.2 833.77 226.228 838.62 219.505C843.468 212.782 838.943 200.074 838.943 200.074C838.943 200.074 826.263 194.808 822.132 178.607C818.002 162.407 821.016 146.312 824.021 136.893" fill="#FFE6A6"/>
<mask id="mask4" mask-type="alpha" maskUnits="userSpaceOnUse" x="773" y="193" width="153" height="160">
<path fill-rule="evenodd" clip-rule="evenodd" d="M851.736 193.818C839.806 194.193 823.211 195.666 815.545 198.345V198.345C803.4 200.505 800.975 220.729 798.924 232.65V232.65C797.438 241.292 794.203 261.322 793.199 274.202V274.202C792.647 281.31 790.544 288.182 787.247 294.507V294.507C777.029 314.112 773.363 340.252 773.363 340.252V340.252L786.143 352.834C786.143 352.834 793.098 341.004 793.098 339.877V339.877C806.794 320.253 811.223 302.819 812.653 293.838V293.838C813.295 289.804 814.201 285.821 815.43 281.925V281.925C817.516 275.308 819.67 265.441 821.523 255.849V255.849C825.217 261.746 826.668 268.832 825.962 275.809V275.809C824.955 285.74 823.16 296.826 820.35 309.204V309.204C820.35 309.204 871.096 323.915 900.417 301.005V301.005C900.417 301.005 896.236 289.058 893.841 276.865V276.865C892.437 269.715 890.237 257.892 892.809 251.074V251.074C893.11 250.275 893.332 249.395 893.49 248.45V248.45C898.175 253.739 905.397 262.952 905.397 262.952V262.952L900.291 313.711C900.291 313.711 910.407 319.099 914.694 313.746V313.746C918.46 309.042 927.286 262.012 925.167 252.371V252.371C923.049 242.73 889.766 208.551 888.764 208.301V208.301C888.764 208.301 888.139 209.98 887.3 212.576V212.576C883.373 202.754 879.742 195.296 879.742 195.093V195.093C879.742 194.83 871.999 193.702 859.067 193.701V193.701C856.78 193.701 854.334 193.737 851.736 193.818V193.818Z" fill="white"/>
</mask>
<g mask="url(#mask4)">
<path fill-rule="evenodd" clip-rule="evenodd" d="M810.078 327.736C810.078 327.736 786.778 359.481 786.661 351.369C786.543 343.256 804.547 313.626 806.313 306.689C808.078 299.752 803.606 289.053 807.607 287.996C811.608 286.937 815.43 281.924 815.43 281.924L810.078 327.736Z" fill="#4384B6"/>
</g>
<path fill-rule="evenodd" clip-rule="evenodd" d="M727.455 344.965C727.455 344.965 727.705 370.71 754.568 390.593C754.568 390.593 765.866 394.417 777.916 394.162C789.966 393.907 825.365 392.122 837.917 390.211C837.917 390.211 779.171 357.136 778.167 356.435C773.429 356.898 753.847 361.295 753.847 361.295C744.286 357.21 737.303 350.703 727.455 344.965" fill="white"/>
<path fill-rule="evenodd" clip-rule="evenodd" d="M744.286 356.178C744.286 356.178 746.526 372.547 755.25 373.549C763.974 374.552 763.861 359.117 778.167 356.435" fill="#223C5B"/>
<path fill-rule="evenodd" clip-rule="evenodd" d="M775.217 338.471C775.217 338.471 750.739 343.173 746.974 346.935C743.208 350.697 741.017 353.797 741.017 353.797L752.057 361.795C752.057 361.795 748.857 366.498 752.623 367.814C756.389 369.131 762.414 362.548 762.414 362.548L778.169 356.452L782.804 359.185L786.891 351.637C786.891 351.637 788.209 342.609 775.217 338.471" fill="#4476B2"/>
<mask id="mask5" mask-type="alpha" maskUnits="userSpaceOnUse" x="808" y="114" width="95" height="108">
<path fill-rule="evenodd" clip-rule="evenodd" d="M838.947 118.233C831.988 115.681 822.274 119.202 815.7 129.93V129.93C798.704 157.663 817.631 197.659 808.601 214.264V214.264C808.601 214.264 833.404 226.113 838.273 219.401V219.401C843.142 212.688 838.598 199.999 838.598 199.999V199.999C838.598 199.999 825.867 194.741 821.719 178.566V178.566C817.573 162.391 820.599 146.32 823.615 136.916V136.916C823.615 136.916 830.218 163.316 856.36 164.502V164.502C859.253 169.675 862.534 186.992 861.513 196.351V196.351C860.493 205.71 853.057 214.719 853.057 214.719V214.719C853.057 214.719 873.653 212.952 883.921 208.36V208.36C894.19 203.768 901.271 193.051 902.452 183.394V183.394C886.046 169.263 884.571 136.172 872.797 124.277V124.277C865.698 116.628 858.907 114.194 852.946 114.193V114.193C847.436 114.193 842.635 116.272 838.947 118.233V118.233Z" fill="white"/>
</mask>
<g mask="url(#mask5)">
<path fill-rule="evenodd" clip-rule="evenodd" d="M823.608 137.469C823.608 137.469 809.681 155.251 819.123 185.281C828.565 215.31 807.932 214.337 807.932 214.337L839.188 229.206L853.588 207.655L833.876 164.436L823.608 137.469Z" fill="#EA9C00"/>
</g>
<mask id="mask6" mask-type="alpha" maskUnits="userSpaceOnUse" x="808" y="114" width="95" height="108">
<path fill-rule="evenodd" clip-rule="evenodd" d="M838.947 118.233C831.988 115.681 822.274 119.202 815.7 129.93V129.93C798.704 157.663 817.631 197.659 808.601 214.264V214.264C808.601 214.264 833.404 226.113 838.273 219.401V219.401C843.142 212.688 838.598 199.999 838.598 199.999V199.999C838.598 199.999 825.867 194.741 821.719 178.566V178.566C817.573 162.391 820.599 146.32 823.615 136.916V136.916C823.615 136.916 830.218 163.316 856.36 164.502V164.502C859.253 169.675 862.534 186.992 861.513 196.351V196.351C860.493 205.71 853.057 214.719 853.057 214.719V214.719C853.057 214.719 873.653 212.952 883.921 208.36V208.36C894.19 203.768 901.271 193.051 902.452 183.394V183.394C886.046 169.263 884.571 136.172 872.797 124.277V124.277C865.698 116.628 858.907 114.194 852.946 114.193V114.193C847.436 114.193 842.635 116.272 838.947 118.233" fill="white"/>
</mask>
<g mask="url(#mask6)">
<path fill-rule="evenodd" clip-rule="evenodd" d="M836.127 119.945C836.127 119.945 853.371 114.365 857.099 126.222C860.827 138.08 852.672 147.612 868.517 155.517C884.363 163.421 883.897 173.186 876.906 184.346C869.915 195.506 889.256 199.226 884.829 208.526C880.401 217.825 921.414 196.203 921.414 196.203L914.423 143.892L882.266 111.575L850.109 103.438C850.109 103.438 837.059 114.83 836.127 119.945" fill="#EA9C00"/>
</g>
<path fill-rule="evenodd" clip-rule="evenodd" d="M423.283 500.358C423.283 500.358 472.706 471.988 461.3 524.077C449.895 576.166 432.577 593.839 432.577 593.839L293.601 586.398L284.73 511.985L423.283 500.358Z" fill="#223C5B"/>
<path fill-rule="evenodd" clip-rule="evenodd" d="M387.766 500.358C387.766 500.358 437.19 471.988 425.784 524.077C414.379 576.166 397.06 593.839 397.06 593.839L258.084 586.398L249.213 511.985L387.766 500.358Z" fill="#2D4E76"/>
<path fill-rule="evenodd" clip-rule="evenodd" d="M888.152 580.493L834.664 576.686L842.214 470.219L895.703 474.026L888.152 580.493Z" fill="#4476B2"/>
<mask id="mask7" mask-type="alpha" maskUnits="userSpaceOnUse" x="812" y="193" width="89" height="121">
<path fill-rule="evenodd" clip-rule="evenodd" d="M851.899 193.818C837.711 194.263 816.933 196.252 812.354 199.969V199.969C817.484 207.525 810.677 241.194 820.191 253.701V253.701C824.952 259.96 826.868 267.914 826.074 275.728V275.728C825.065 285.65 823.266 296.725 820.451 309.091V309.091C820.451 309.091 871.295 323.787 900.673 300.899V300.899C900.673 300.899 896.483 288.964 894.085 276.784V276.784C892.678 269.64 890.473 257.829 893.05 251.017V251.017C898.872 235.627 879.958 195.591 879.958 195.092V195.092C879.958 194.829 872.2 193.702 859.243 193.701V193.701C856.952 193.701 854.501 193.737 851.899 193.818" fill="white"/>
</mask>
<g mask="url(#mask7)">
<path fill-rule="evenodd" clip-rule="evenodd" d="M821.783 255.969C826.787 264.317 825.565 276.492 849.832 274.752C874.099 273.013 870.375 279.622 861.471 283.449C852.568 287.275 842.267 292.667 850.473 301.884C858.678 311.102 885.564 310.407 897.261 303.972C908.958 297.536 897.61 330.756 897.61 330.756L830.046 327.625L812.239 307.624C812.239 307.624 807.467 257.476 821.783 255.969" fill="#376193"/>
</g>
<path fill-rule="evenodd" clip-rule="evenodd" d="M893.266 249.338L885.485 239.279C885.485 239.279 891.059 253.35 891.465 263.117C891.465 257.71 891.756 253.699 893.266 249.338" fill="#223C5B"/>
<path fill-rule="evenodd" clip-rule="evenodd" d="M385.873 511.73C385.873 511.73 370.966 519.453 371.663 540.383C372.36 561.314 367.059 572.43 344.065 576.616C321.07 580.802 284.139 534.057 284.139 534.057L316.192 511.73H385.873Z" fill="#223C5B"/>
<path fill-rule="evenodd" clip-rule="evenodd" d="M253.746 408.43C253.746 408.43 244.381 296.219 261.804 273.602C279.228 250.986 314.728 229.675 314.728 229.675C314.728 229.675 323.276 225.333 339.176 219.188C355.075 213.042 400.756 201.187 400.756 201.187C400.756 201.187 438.433 193.576 453.679 194.663C470.667 187.486 483.516 176.179 490.486 173.134C489.179 163.131 496.148 151.17 506.167 151.388C516.185 151.605 552.339 155.737 535.569 188.139C535.569 188.139 536.658 201.839 526.857 208.364C517.057 214.887 499.415 229.023 469.36 239.678C439.305 250.334 427.979 257.727 426.89 266.209C426.618 268.329 425.776 271.731 424.666 275.642C418.769 296.417 416.614 318.072 418.14 339.611L422.895 406.68L253.746 408.43Z" fill="#4476B2"/>
<mask id="mask8" mask-type="alpha" maskUnits="userSpaceOnUse" x="251" y="151" width="289" height="260">
<path fill-rule="evenodd" clip-rule="evenodd" d="M490.427 173.267C483.46 176.308 470.616 187.607 453.634 194.777V194.777C438.394 193.691 400.73 201.296 400.73 201.296V201.296C400.73 201.296 340.528 216.891 336.611 219.281V219.281C332.691 221.671 314.735 229.76 314.735 229.76V229.76C314.735 229.76 279.247 251.053 261.83 273.65V273.65C244.414 296.247 253.776 408.364 253.776 408.364V408.364L423.244 410.051L421.673 376.458C419.985 340.384 421.63 304.228 426.562 268.452V268.452C426.683 267.572 426.782 266.834 426.856 266.263V266.263C427.944 257.788 439.265 250.401 469.309 239.754V239.754C499.353 229.107 516.988 214.984 526.785 208.466V208.466C536.582 201.947 535.493 188.258 535.493 188.258V188.258C552.257 155.884 516.117 151.756 506.103 151.539V151.539C506.012 151.537 505.923 151.535 505.833 151.535V151.535C495.964 151.537 489.133 163.361 490.427 173.267" fill="white"/>
</mask>
<g mask="url(#mask8)">
<path fill-rule="evenodd" clip-rule="evenodd" d="M453.501 194.721C439.659 201.373 439.659 205.978 416.588 214.164C393.517 222.351 381.213 195.744 406.847 184.999C432.481 174.255 467.343 188.069 453.501 194.721" fill="#376193"/>
</g>
<mask id="mask9" mask-type="alpha" maskUnits="userSpaceOnUse" x="251" y="151" width="289" height="260">
<path fill-rule="evenodd" clip-rule="evenodd" d="M490.427 173.267C483.46 176.308 470.616 187.607 453.634 194.777V194.777C438.394 193.691 400.73 201.296 400.73 201.296V201.296C400.73 201.296 340.528 216.891 336.611 219.281V219.281C332.691 221.671 314.735 229.76 314.735 229.76V229.76C314.735 229.76 279.247 251.053 261.83 273.65V273.65C244.414 296.247 253.776 408.364 253.776 408.364V408.364L423.244 410.051L421.673 376.458C419.985 340.384 421.63 304.228 426.562 268.452V268.452C426.683 267.572 426.782 266.834 426.856 266.263V266.263C427.944 257.788 439.265 250.401 469.309 239.754V239.754C499.353 229.107 516.988 214.984 526.785 208.466V208.466C536.582 201.947 535.493 188.258 535.493 188.258V188.258C552.257 155.884 516.117 151.756 506.103 151.539V151.539C506.012 151.537 505.923 151.535 505.833 151.535V151.535C495.964 151.537 489.133 163.361 490.427 173.267" fill="white"/>
</mask>
<g mask="url(#mask9)">
<path fill-rule="evenodd" clip-rule="evenodd" d="M350.724 226.088C321.434 263.671 287.495 248.824 279.592 282.231C271.689 315.639 308.765 319.467 282.265 352.874C255.765 386.282 301.443 425.141 301.443 425.141L212.179 410.293L255.416 218.664L342.82 212.168C342.82 212.168 380.013 188.504 350.724 226.088" fill="#376193"/>
</g>
<mask id="mask10" mask-type="alpha" maskUnits="userSpaceOnUse" x="251" y="151" width="289" height="260">
<path fill-rule="evenodd" clip-rule="evenodd" d="M490.427 173.267C483.46 176.308 470.616 187.607 453.634 194.777V194.777C438.394 193.691 400.73 201.296 400.73 201.296V201.296C400.73 201.296 340.528 216.891 336.611 219.281V219.281C332.691 221.671 314.735 229.76 314.735 229.76V229.76C314.735 229.76 279.247 251.053 261.83 273.65V273.65C244.414 296.247 253.776 408.364 253.776 408.364V408.364L423.244 410.051L421.673 376.458C419.985 340.384 421.63 304.228 426.562 268.452V268.452C426.683 267.572 426.782 266.834 426.856 266.263V266.263C427.944 257.788 439.265 250.401 469.309 239.754V239.754C499.353 229.107 516.988 214.984 526.785 208.466V208.466C536.582 201.947 535.493 188.258 535.493 188.258V188.258C552.257 155.884 516.117 151.756 506.103 151.539V151.539C506.012 151.537 505.923 151.535 505.833 151.535V151.535C495.964 151.537 489.133 163.361 490.427 173.267" fill="white"/>
</mask>
<g mask="url(#mask10)">
<path fill-rule="evenodd" clip-rule="evenodd" d="M426.969 264.309C426.969 264.309 413.022 295.222 398.145 308.214C383.267 321.206 350.259 332.806 364.206 353.686C378.154 374.565 331.198 407.044 331.198 407.044L450.215 410.757L479.969 278.519L426.04 267.846" fill="#376193"/>
</g>
<path fill-rule="evenodd" clip-rule="evenodd" d="M329.086 203.568C329.086 203.568 327.85 213.332 328.335 223.337C328.458 225.877 355.384 285.287 368.866 282.281C382.347 279.276 382.641 243.189 382.858 237.776C383.076 232.363 354.774 202.485 329.086 203.568" fill="#EDC3B9"/>
<mask id="mask11" mask-type="alpha" maskUnits="userSpaceOnUse" x="328" y="202" width="56" height="81">
<path fill-rule="evenodd" clip-rule="evenodd" d="M329.123 202.878C329.123 202.878 327.882 212.684 328.37 222.732V222.732C328.493 225.283 355.501 284.946 369.025 281.927V281.927C382.548 278.91 382.842 242.668 383.059 237.233V237.233C383.275 231.893 355.889 202.852 330.499 202.85V202.85C330.038 202.85 329.582 202.859 329.123 202.878V202.878Z" fill="white"/>
</mask>
<g mask="url(#mask11)">
<path fill-rule="evenodd" clip-rule="evenodd" d="M349.206 216.462C349.206 216.462 340.812 230.856 351.072 242.696C361.33 254.536 363.662 286.573 378.817 269.858C393.973 253.143 380.45 294.235 380.45 294.235L350.838 295.163L310.502 213.444L355.734 188.139L349.206 216.462Z" fill="#CC9185"/>
</g>
<path fill-rule="evenodd" clip-rule="evenodd" d="M338.186 191.336C338.186 191.336 340.207 218.478 348.576 223.676C356.947 228.874 379.459 245.622 391.292 240.424C394.212 239.142 393.566 233.128 395.035 226.581C396.048 222.067 399.683 217.956 399.623 212.302C399.558 206.255 397.054 200.186 396.564 193.942C396.176 188.987 399.081 186.435 398.094 181.703C397.28 177.798 394.652 174.474 393.506 170.993C392.179 166.959 389.969 156.602 387.898 153.654C372.89 132.285 322.023 150.044 338.186 191.336" fill="#CC9185"/>
<mask id="mask12" mask-type="alpha" maskUnits="userSpaceOnUse" x="334" y="144" width="66" height="98">
<path fill-rule="evenodd" clip-rule="evenodd" d="M337.887 191.27C337.887 191.27 339.908 218.493 348.281 223.706V223.706C356.652 228.919 379.17 245.716 391.006 240.503V240.503C393.926 239.217 393.279 233.186 394.749 226.619V226.619C395.763 222.092 399.398 217.969 399.338 212.297V212.297C399.273 206.234 396.768 200.147 396.279 193.884V193.884C395.89 188.915 398.795 186.355 397.808 181.609V181.609C396.994 177.693 394.365 174.358 393.219 170.868V170.868C391.892 166.822 389.682 156.434 387.611 153.477V153.477C383.261 147.267 375.898 144.352 368.028 144.352V144.352C348.741 144.352 326.406 161.858 337.887 191.27V191.27Z" fill="white"/>
</mask>
<g mask="url(#mask12)">
<path fill-rule="evenodd" clip-rule="evenodd" d="M365.687 159.616C365.687 159.616 359.568 180.075 367.726 192.35C375.884 204.626 362.5 226.364 376.904 237.872C391.308 249.381 404.946 248.613 404.946 248.613L405.966 176.494L388.121 151.432L365.687 159.616Z" fill="#EDC3B9"/>
</g>
<path fill-rule="evenodd" clip-rule="evenodd" d="M354.897 173.642C354.897 173.642 352.507 169.508 360.113 166.461C367.719 163.414 390.322 162.761 392.06 151.01C393.3 142.626 399.166 121.118 390.295 119.581C381.424 118.043 377.16 127.096 372.213 126.243C367.265 125.389 367.095 120.776 361.977 120.605C356.859 120.434 344.406 132.563 339.8 132.905C335.194 133.246 330.929 132.221 325.3 132.905C319.67 133.588 307.562 150.333 308.171 158.626C309.258 173.425 325.34 210.203 327.949 210.638C330.556 211.073 331.643 189.094 341.858 192.358C341.858 192.358 347.508 196.057 346.639 204.327C346.639 204.327 353.593 205.633 352.071 198.451C350.55 191.27 347.943 184.959 353.158 184.741C358.374 184.524 366.415 183.653 354.897 173.642" fill="#4C4C4C"/>
<path fill-rule="evenodd" clip-rule="evenodd" d="M339.901 194.969C339.901 194.969 334.468 187.352 327.732 189.31C320.994 191.269 325.34 206.067 329.035 208.896C332.73 211.726 339.901 217.166 343.162 206.502C346.422 195.839 339.901 194.969 339.901 194.969" fill="#CC9185"/>
<path fill-rule="evenodd" clip-rule="evenodd" d="M503.767 154.273C503.767 154.273 493.769 168.201 506.157 178.864C518.545 189.528 532.454 186.481 536.148 174.295C539.843 162.108 534.627 140.999 529.411 134.252C524.196 127.506 506.157 135.775 506.157 135.775L503.767 154.273Z" fill="#EDC3B9"/>
<path fill-rule="evenodd" clip-rule="evenodd" d="M509.055 139.621C509.055 139.621 498.768 135.704 494.712 132.657C490.655 129.61 482.686 115.683 486.598 115.103C490.51 114.522 495.726 119.6 495.726 119.6C495.726 119.6 484.859 72.5939 490.075 68.3863C495.291 64.1788 497.03 78.8321 497.03 78.8321C497.03 78.8321 489.351 59.8262 493.987 59.8262C498.623 59.8262 502.825 71.2883 502.825 71.2883C502.825 71.2883 498.189 63.1631 503.549 62.7281C508.91 62.2931 512.387 86.5216 512.387 86.5216C512.387 86.5216 507.896 77.2358 514.706 79.5571C521.515 81.8791 541.075 112.491 529.194 135.994C515.43 140.927 509.055 139.621 509.055 139.621" fill="#EDC3B9"/>
<mask id="mask13" mask-type="alpha" maskUnits="userSpaceOnUse" x="485" y="59" width="53" height="126">
<path fill-rule="evenodd" clip-rule="evenodd" d="M493.561 67.7645C492.638 66.8599 491.504 66.6461 490.126 67.7575V67.7575C484.916 71.9607 495.771 118.917 495.771 118.917V118.917C495.771 118.917 490.56 113.845 486.652 114.425V114.425C482.745 115.005 490.706 128.918 494.758 131.961V131.961C497.352 133.91 502.496 136.214 505.862 137.62V137.62L503.803 153.555C503.803 153.555 493.816 167.468 506.191 178.121V178.121C518.566 188.773 532.46 185.73 536.149 173.555V173.555C539.753 161.671 534.872 141.296 529.79 134.065V134.065C540.395 110.763 521.414 81.1957 514.73 78.9172V78.9172C512.732 78.2355 511.712 78.5593 511.262 79.351V79.351C509.823 72.2155 507.112 61.819 503.586 62.1052V62.1052C500.574 62.3497 500.721 65.025 501.427 67.3188V67.3188C499.808 63.9387 497.012 59.207 494.035 59.207V59.207C491.871 59.207 492.392 63.3496 493.561 67.7645V67.7645Z" fill="white"/>
</mask>
<g mask="url(#mask13)">
<path fill-rule="evenodd" clip-rule="evenodd" d="M518.09 74.3604C518.09 74.3604 510.933 70.2652 511.444 77.9439C510.422 76.4077 507.738 75.6403 506.332 76.4077C500.708 79.48 505.821 95.8609 508.888 104.052C509.443 105.535 512.467 115.827 511.444 116.851C510.422 117.875 504.287 109.683 499.686 112.243C495.085 114.803 498.128 118.627 501.731 124.53C509.2 136.769 519.112 148.078 522.691 159.341C526.27 170.603 520.817 184.596 511.274 181.695C501.731 178.794 543.14 199.783 543.14 199.783L552.342 109.172L518.09 74.3604Z" fill="#CC9185"/>
</g>
<mask id="mask14" mask-type="alpha" maskUnits="userSpaceOnUse" x="308" y="119" width="88" height="92">
<path fill-rule="evenodd" clip-rule="evenodd" d="M379.987 122.599C377.322 124.497 375.095 126.396 372.709 125.983V125.983C367.771 125.131 367.601 120.526 362.494 120.355V120.355C357.386 120.184 344.956 132.294 340.359 132.635V132.635C338.315 132.787 336.339 132.669 334.28 132.551V132.551C331.709 132.404 329.008 132.257 325.887 132.635V132.635C320.268 133.317 308.184 150.036 308.792 158.317V158.317C309.876 173.092 325.927 209.812 328.53 210.246V210.246C329.753 210.451 330.642 205.705 332.301 200.959V200.959C334.168 195.614 337.012 190.269 342.412 191.995V191.995C342.412 191.995 348.052 195.688 347.185 203.945V203.945C347.185 203.945 354.126 205.249 352.607 198.079V198.079C351.089 190.908 348.486 184.607 353.691 184.39V184.39C358.897 184.173 366.923 183.304 355.427 173.308V173.308C355.427 173.308 353.041 169.18 360.632 166.139V166.139C368.224 163.097 390.783 162.445 392.518 150.712V150.712C393.756 142.341 399.61 120.867 390.757 119.332V119.332C390.061 119.211 389.393 119.156 388.753 119.156V119.156C385.175 119.156 382.402 120.877 379.987 122.599V122.599Z" fill="white"/>
</mask>
<g mask="url(#mask14)">
<path fill-rule="evenodd" clip-rule="evenodd" d="M317.799 138.905C317.799 138.905 312.436 152.463 321.119 153.487C329.803 154.51 338.699 140.738 346.489 139.459C354.278 138.18 353.895 147.518 363.345 146.111C372.794 144.704 373.986 126.625 381.776 121.125C389.565 115.624 367.346 113.449 367.346 113.449L325.589 121.125L317.799 138.905Z" fill="#292525"/>
</g>
<path fill-rule="evenodd" clip-rule="evenodd" d="M312.014 337.65C309.679 369.178 304.897 379.572 304.008 400.36C313.571 400.129 312.014 399.32 312.014 399.32C312.014 399.32 316.351 374.375 312.014 337.65" fill="#223C5B"/>
<path fill-rule="evenodd" clip-rule="evenodd" d="M984.358 430.27C984.358 430.27 981.106 455.371 950.451 460.949C919.796 466.527 222.159 534.626 222.159 534.626L187.323 502.319C187.323 502.319 562.153 462.343 560.759 462.808C559.366 463.273 984.358 430.27 984.358 430.27" fill="#2D4E76"/>
<path fill-rule="evenodd" clip-rule="evenodd" d="M117.006 411.479L766.914 369.515C767.36 369.486 767.807 369.527 768.241 369.637L987.682 425.298C992.327 426.477 991.822 433.238 987.053 433.711L151.132 516.66C149.161 516.856 147.314 515.673 146.666 513.799L113.238 417.154C112.314 414.481 114.186 411.662 117.006 411.479" fill="white"/>
<path fill-rule="evenodd" clip-rule="evenodd" d="M117.006 411.479L766.914 369.515C767.36 369.486 767.807 369.527 768.241 369.637L987.682 425.298C992.327 426.477 146.666 508.221 146.666 508.221L113.238 417.154C112.314 414.481 114.186 411.662 117.006 411.479" fill="#284365"/>
<mask id="mask15" mask-type="alpha" maskUnits="userSpaceOnUse" x="256" y="509" width="80" height="101">
<path fill-rule="evenodd" clip-rule="evenodd" d="M256.674 509.275H335.125V609.002H256.674V509.275Z" fill="white"/>
</mask>
<g mask="url(#mask15)">
<path fill-rule="evenodd" clip-rule="evenodd" d="M270.553 513.469L256.674 624.641L286.521 624.32L335.125 509.275L270.553 513.469Z" fill="#2D4E76"/>
</g>
<path fill-rule="evenodd" clip-rule="evenodd" d="M521.047 441.31L562.153 418.998L652.725 435.732L628.34 462.577L521.047 441.31Z" fill="#4476B2"/>
<path fill-rule="evenodd" clip-rule="evenodd" d="M924.817 458.27L962.491 563.476L937.678 569.259L870.314 467.379L924.817 458.27Z" fill="#2D4E76"/>
<path fill-rule="evenodd" clip-rule="evenodd" d="M369.031 407.899L414.175 418.054L428.939 400.186L369.365 403.765C366.946 403.91 366.667 407.367 369.031 407.899" fill="#223C5B"/>
<path fill-rule="evenodd" clip-rule="evenodd" d="M421.495 328.807L407.305 407.693C406.31 413.227 410.449 418.315 415.683 417.992L535.35 410.614C538.896 410.396 541.869 407.69 542.655 403.967L559.223 325.491C560.404 319.898 556.261 314.615 550.933 314.919L428.886 321.887C425.232 322.096 422.19 324.944 421.495 328.807" fill="#223C5B"/>
<path fill-rule="evenodd" clip-rule="evenodd" d="M424.818 328.245L410.563 407.497C409.563 413.058 413.721 418.17 418.98 417.845L539.203 410.433C542.765 410.213 545.753 407.495 546.542 403.755L563.188 324.914C564.375 319.295 560.212 313.986 554.858 314.292L432.245 321.293C428.573 321.503 425.516 324.364 424.818 328.245" fill="#4476B2"/>
<mask id="mask16" mask-type="alpha" maskUnits="userSpaceOnUse" x="409" y="314" width="154" height="105">
<path fill-rule="evenodd" clip-rule="evenodd" d="M554.224 314.909L431.544 321.896C427.871 322.106 424.812 324.961 424.113 328.834V328.834L409.851 407.931C408.85 413.48 413.01 418.583 418.272 418.258V418.258L538.56 410.861C542.124 410.642 545.113 407.928 545.903 404.196V404.196L562.557 325.509C563.712 320.057 559.805 314.896 554.664 314.896V314.896C554.518 314.896 554.371 314.901 554.224 314.909V314.909Z" fill="white"/>
</mask>
<g mask="url(#mask16)">
<path fill-rule="evenodd" clip-rule="evenodd" d="M558.042 313.485C558.042 313.485 544.299 357.661 496.693 373.135C449.086 388.608 424.129 403.076 410.914 419.928C397.699 436.779 557.671 422.707 557.671 422.707L577.684 310.289L558.042 313.485Z" fill="#376193"/>
</g>
<path fill-rule="evenodd" clip-rule="evenodd" d="M663.368 447.659L581.81 420.877L510.012 426.442L594.706 455.659L663.368 447.659Z" fill="white"/>
<path fill-rule="evenodd" clip-rule="evenodd" d="M355.609 442.701C355.609 446.303 335.539 450.788 310.996 450.788C286.454 450.788 266.732 446.303 266.732 442.701C266.732 439.099 286.628 436.18 311.17 436.18C335.713 436.18 355.609 439.099 355.609 442.701" fill="white"/>
<path fill-rule="evenodd" clip-rule="evenodd" d="M545.838 455.647L496.697 441.006L492.247 441.551C491.268 441.671 490.9 442.897 491.652 443.534L493.722 445.288L542.843 460.392C542.843 460.392 549.817 460.46 545.838 455.647" fill="#223C5B"/>
<path fill-rule="evenodd" clip-rule="evenodd" d="M255.927 531.135C255.927 531.135 268.126 529.569 266.558 539.309C264.989 549.048 276.142 527.135 276.142 527.135L268.475 519.309L255.927 531.135Z" fill="#2D4E76"/>
<path fill-rule="evenodd" clip-rule="evenodd" d="M930.872 476.353C930.872 476.353 927.735 464.005 939.759 462.266C951.784 460.527 917.453 457.57 917.453 457.57L930.872 476.353Z" fill="#2D4E76"/>
<path fill-rule="evenodd" clip-rule="evenodd" d="M345.996 418.858C345.996 425.708 333.036 435.301 333.036 435.301C333.036 435.301 321.43 429.748 321.43 422.898C321.43 416.048 327.4 412.092 333.81 412.092C340.219 412.092 345.996 412.008 345.996 418.858Z" stroke="#223C5B" stroke-width="6"/>
<path fill-rule="evenodd" clip-rule="evenodd" d="M342.365 409.59C342.365 421.672 338.257 432.484 331.791 439.718C326.601 445.521 319.892 445.919 312.565 445.919C305.3 445.919 298.642 445.58 293.47 439.864C286.928 432.631 282.765 421.753 282.765 409.59C282.818 410.905 342.418 409.59 342.365 409.59" fill="#223C5B"/>
<mask id="mask17" mask-type="alpha" maskUnits="userSpaceOnUse" x="282" y="408" width="61" height="38">
<path fill-rule="evenodd" clip-rule="evenodd" d="M282.897 408.979C282.897 421.268 287.08 432.259 293.653 439.567V439.567C298.848 445.343 305.537 445.685 312.835 445.685V445.685C320.196 445.685 326.936 445.283 332.149 439.419V439.419C338.647 432.111 342.773 421.186 342.773 408.979V408.979C342.826 408.979 282.951 410.306 282.897 408.979V408.979Z" fill="white"/>
</mask>
<g mask="url(#mask17)">
<path fill-rule="evenodd" clip-rule="evenodd" d="M323.34 408.434C323.34 408.434 311.96 414.291 315.753 426.24C319.546 438.189 315.461 446.038 304.432 447.619C293.402 449.201 279.046 444.105 279.046 444.105L278.871 411.772L283.948 402.459L323.34 408.434Z" fill="#4476B2"/>
</g>
<path fill-rule="evenodd" clip-rule="evenodd" d="M342.502 409.36C342.502 411.246 329.159 412.775 312.7 412.775C296.241 412.775 282.897 411.246 282.897 409.36C282.897 407.474 296.241 405.945 312.7 405.945C329.159 405.945 342.502 407.474 342.502 409.36" fill="white"/>
<path fill-rule="evenodd" clip-rule="evenodd" d="M587.493 452.082C587.493 452.082 559.536 446.094 560.546 439.733C561.557 433.372 571.262 439.614 571.262 439.614C571.262 439.614 561.499 437.512 564.402 432.362C567.305 427.211 576.056 433.937 576.056 433.937C576.056 433.937 566.927 431.637 570.587 427.862C574.247 424.086 586.687 430.277 586.687 430.277L573.899 428.384C573.899 428.384 577.399 421.59 586.17 422.151C594.941 422.712 595.511 418.626 602.134 428.036C608.757 437.445 587.493 452.082 587.493 452.082" fill="#B57268"/>
<path fill-rule="evenodd" clip-rule="evenodd" d="M636.059 467.056C622.741 469.349 594.931 458.246 583.857 453.491C581.448 452.456 580.501 449.232 581.922 446.919L587.259 438.237C593.682 427.79 605.169 422.644 616.584 425.099L634.293 428.908C634.293 428.908 652.909 464.154 636.059 467.056" fill="white"/>
<path fill-rule="evenodd" clip-rule="evenodd" d="M606.922 217.851L692.544 275.665L717.199 235.33L633.819 195.891L606.922 217.851Z" fill="white"/>
<path fill-rule="evenodd" clip-rule="evenodd" d="M640.209 192.328C640.209 192.328 633.547 208.213 624.833 214.362C616.12 220.511 625.859 228.709 639.697 228.196C653.535 227.684 680.187 243.569 680.187 243.569L640.209 192.328Z" fill="black"/>
<path fill-rule="evenodd" clip-rule="evenodd" d="M595.951 213.493C593.422 210.777 593.494 206.551 596.119 203.926C604.802 195.243 623.751 177.068 630.233 177.068C638.75 177.068 646.371 190.065 646.819 193.651C647.268 197.236 616.784 225.023 608.715 222.782C604.153 221.515 599.304 217.095 595.951 213.493" fill="white"/>
<path fill-rule="evenodd" clip-rule="evenodd" d="M544.168 138.513C544.168 138.513 534.592 147.216 524.145 142.212C513.697 137.207 498.244 116.536 503.903 114.142C509.562 111.749 518.562 127.093 520.445 125.892C522.327 124.691 499.767 79.7622 505.862 76.9331C508.691 76.0626 514.35 89.1188 514.35 89.1188C514.35 89.1188 505.427 71.9287 509.997 70.1883C514.568 68.4472 516.092 79.1092 516.092 79.1092C516.092 79.1092 513.915 74.5396 516.962 73.8872C520.009 73.2342 524.362 87.8133 524.362 87.8133C524.362 87.8133 523.926 84.7667 526.321 83.8961C528.715 83.0263 555.05 131.55 544.168 138.513" fill="#B57268"/>
<path fill-rule="evenodd" clip-rule="evenodd" d="M531.327 140.906C531.327 140.906 601.63 206.894 602.282 206.676C602.59 206.574 610.674 203.336 616.633 197.453C623.303 190.869 627.909 181.568 627.909 181.568C627.909 181.568 548.304 131.114 543.297 126.763C538.292 122.411 531.327 140.906 531.327 140.906" fill="#B57268"/>
<mask id="mask18" mask-type="alpha" maskUnits="userSpaceOnUse" x="502" y="70" width="126" height="138">
<path fill-rule="evenodd" clip-rule="evenodd" d="M509.986 70.8068C506.886 71.9888 510.003 80.2899 512.321 85.4958V85.4958C510.418 81.7708 507.6 77.0114 505.857 77.5477V77.5477C499.771 80.3742 520.42 126.474 520.42 126.474V126.474C520.42 126.474 509.552 112.339 503.901 114.732V114.732C498.25 117.124 513.682 137.781 524.115 142.782V142.782C527.621 144.463 531.027 144.593 534.006 144.03V144.03C546.914 156.143 601.572 207.395 602.148 207.203V207.203C602.455 207.1 610.528 203.864 616.479 197.986V197.986C623.14 191.406 627.739 182.112 627.739 182.112V182.112C627.739 182.112 562.683 140.851 546.573 129.762V129.762C544.789 113.584 528.166 83.8227 526.288 84.506V84.506C523.897 85.376 524.332 88.4205 524.332 88.4205V88.4205C524.332 88.4205 519.985 73.8513 516.942 74.5039V74.5039C515.823 74.7435 515.41 75.5139 515.335 76.3908V76.3908C514.587 73.79 513.214 70.6152 510.969 70.6152V70.6152C510.659 70.6152 510.331 70.6758 509.986 70.8068V70.8068Z" fill="white"/>
</mask>
<g mask="url(#mask18)">
<path fill-rule="evenodd" clip-rule="evenodd" d="M503.361 114.008C503.361 114.008 500.29 119.641 506.944 124.761C513.598 129.882 522.3 138.587 534.584 138.587C546.868 138.587 555.058 170.846 583.721 178.016C612.385 185.184 626.716 173.407 626.716 173.407L630.299 185.696L604.707 210.787L594.982 210.274L508.48 136.538L500.29 115.032L506.944 110.936L503.361 114.008Z" fill="#9E574F"/>
</g>
<path fill-rule="evenodd" clip-rule="evenodd" d="M838.026 441.465C831.177 415.32 807.204 315.721 802.534 305.76C797.864 295.801 784.787 241.332 754.588 235.108C724.387 228.882 722.208 253.471 722.208 253.471L692.631 336.263C692.631 336.263 692.056 360.01 693.744 380.297L665.738 326.922C665.738 326.922 659.472 345.892 651.013 374.809C643.769 399.574 618.317 441.897 619.143 459.247C629.418 465.862 625.597 468.773 642.643 467.124C659.689 465.475 683.884 428.069 688.282 413.776C694.881 445.659 702.03 469.847 697.08 495.683C693.612 513.791 725.796 511.646 745.362 508.743C740.563 519.367 729.31 535.364 733.727 547.289C739.955 564.097 762.371 594.599 762.371 594.599C762.371 594.599 837.404 574.368 843.942 548.845C850.48 523.323 844.876 467.61 838.026 441.465" fill="white"/>
<path fill-rule="evenodd" clip-rule="evenodd" d="M692.287 386.703C692.287 386.703 691.872 400.649 688.375 414.218C689.534 419.799 690.706 425.145 691.827 430.306C694.158 421.233 696.073 406.424 692.287 386.703" fill="#223C5B"/>
<mask id="mask19" mask-type="alpha" maskUnits="userSpaceOnUse" x="685" y="234" width="163" height="361">
<path fill-rule="evenodd" clip-rule="evenodd" d="M722.489 253.471L692.831 336.264C692.831 336.264 681.364 377.253 687.92 393.437V393.437C694.476 409.622 703.536 462.38 697.293 495.683V495.683C700.103 495.683 740.908 492.509 746.84 499.046V499.046C752.771 505.583 727.797 530.482 734.04 547.29V547.29C740.284 564.097 762.761 594.599 762.761 594.599V594.599C762.761 594.599 837.998 574.368 844.554 548.846V548.846C851.109 523.323 845.491 467.61 838.622 441.466V441.466C831.755 415.321 807.716 315.721 803.033 305.761V305.761C798.351 295.801 785.239 241.333 754.957 235.107V235.107C751.556 234.408 748.505 234.098 745.776 234.098V234.098C724.207 234.096 722.489 253.471 722.489 253.471V253.471Z" fill="white"/>
</mask>
<g mask="url(#mask19)">
<path fill-rule="evenodd" clip-rule="evenodd" d="M730.927 269.201C732.581 268.102 755.186 248.313 770.074 267.003C784.96 285.693 732.581 337.915 743.608 348.36C754.635 358.804 820.799 329.12 797.642 373.646C774.484 418.173 762.906 446.208 777.793 453.354C792.679 460.5 835.134 493.484 772.83 514.372C710.526 535.261 852.778 582.536 852.778 582.536L859.946 486.887L815.285 251.061L760.149 210.383L728.721 218.079L730.927 269.201Z" fill="#F2F5FE"/>
</g>
<path fill-rule="evenodd" clip-rule="evenodd" d="M635.538 189.46C635.538 189.46 628.387 251.806 656.371 261.781C684.356 271.757 710.475 228.114 698.348 207.228C686.222 186.343 635.538 189.46 635.538 189.46" fill="#B57268"/>
<path fill-rule="evenodd" clip-rule="evenodd" d="M660.724 147.688C660.724 147.688 626.21 164.834 629.631 178.861C633.051 192.89 643 202.864 643 202.864C643 202.864 634.295 290.149 652.64 310.412C670.986 330.674 662.59 346.261 661.657 357.794C660.724 369.328 682.49 382.11 678.137 388.033C673.784 393.956 667.565 390.215 667.565 390.215C667.565 390.215 670.986 409.854 686.844 401.748C702.702 393.644 692.441 320.699 704.256 309.788C716.072 298.878 751.208 277.368 754.317 265.522C757.427 253.677 741.258 249.313 741.88 241.519C742.502 233.725 758.67 175.744 722.601 150.805C686.533 125.867 660.724 147.688 660.724 147.688" fill="#562424"/>
<mask id="mask20" mask-type="alpha" maskUnits="userSpaceOnUse" x="629" y="138" width="126" height="266">
<path fill-rule="evenodd" clip-rule="evenodd" d="M660.724 147.689C660.724 147.689 626.209 164.834 629.631 178.862V178.862C633.051 192.889 643.001 202.864 643.001 202.864V202.864C643.001 202.864 634.295 290.149 652.64 310.412V310.412C670.986 330.674 662.59 346.26 661.657 357.795V357.795C660.724 369.329 682.49 382.109 678.137 388.033V388.033C673.784 393.955 667.565 390.215 667.565 390.215V390.215C667.565 390.215 670.986 409.854 686.843 401.749V401.749C702.702 393.643 692.441 320.699 704.256 309.788V309.788C716.072 298.878 751.208 277.368 754.317 265.522V265.522C757.427 253.676 741.258 249.313 741.88 241.519V241.519C742.502 233.726 758.67 175.744 722.602 150.806V150.806C709.487 141.738 697.725 138.852 688.071 138.852V138.852C671.173 138.85 660.724 147.689 660.724 147.689V147.689Z" fill="white"/>
</mask>
<g mask="url(#mask20)">
<path fill-rule="evenodd" clip-rule="evenodd" d="M656.557 148.476C656.557 148.476 684.016 142.97 693.9 169.398C703.785 195.824 663.696 227.757 679.073 233.263C694.449 238.769 725.203 244.275 716.965 253.083C708.727 261.892 671.934 279.51 672.483 302.083C673.032 324.656 686.212 347.78 678.523 358.791C670.835 369.802 663.696 360.993 663.421 345.578C663.147 330.162 640.631 308.139 640.631 308.139L625.254 217.297L630.746 163.342L656.557 148.476Z" fill="#D37F7F"/>
</g>
<mask id="mask21" mask-type="alpha" maskUnits="userSpaceOnUse" x="629" y="138" width="126" height="266">
<path fill-rule="evenodd" clip-rule="evenodd" d="M660.724 147.689C660.724 147.689 626.209 164.834 629.631 178.862V178.862C633.051 192.889 643.001 202.864 643.001 202.864V202.864C643.001 202.864 634.295 290.149 652.64 310.412V310.412C670.986 330.674 662.59 346.26 661.657 357.795V357.795C660.724 369.329 682.49 382.109 678.137 388.033V388.033C673.784 393.955 667.565 390.215 667.565 390.215V390.215C667.565 390.215 670.986 409.854 686.843 401.749V401.749C702.702 393.643 692.441 320.699 704.256 309.788V309.788C716.072 298.878 751.208 277.368 754.317 265.522V265.522C757.427 253.676 741.258 249.313 741.88 241.519V241.519C742.502 233.726 758.67 175.744 722.602 150.806V150.806C709.487 141.738 697.725 138.852 688.071 138.852V138.852C671.173 138.85 660.724 147.689 660.724 147.689V147.689Z" fill="white"/>
</mask>
<g mask="url(#mask21)">
<path fill-rule="evenodd" clip-rule="evenodd" d="M641.18 222.25C641.18 222.25 640.082 199.677 657.106 191.969C674.13 184.262 625.803 188.666 630.197 174.902C634.59 161.138 640.631 158.936 640.631 158.936L608.23 187.702L628 214.542L641.18 222.25Z" fill="#562424"/>
</g>
<mask id="mask22" mask-type="alpha" maskUnits="userSpaceOnUse" x="629" y="138" width="126" height="266">
<path fill-rule="evenodd" clip-rule="evenodd" d="M660.724 147.689C660.724 147.689 626.209 164.834 629.631 178.862V178.862C633.051 192.889 643.001 202.864 643.001 202.864V202.864C643.001 202.864 634.295 290.149 652.64 310.412V310.412C670.986 330.674 662.59 346.26 661.657 357.795V357.795C660.724 369.329 682.49 382.109 678.137 388.033V388.033C673.784 393.955 667.565 390.215 667.565 390.215V390.215C667.565 390.215 670.986 409.854 686.843 401.749V401.749C702.702 393.643 692.441 320.699 704.256 309.788V309.788C716.072 298.878 751.208 277.368 754.317 265.522V265.522C757.427 253.676 741.258 249.313 741.88 241.519V241.519C742.502 233.726 758.67 175.744 722.602 150.806V150.806C709.487 141.738 697.725 138.852 688.071 138.852V138.852C671.173 138.85 660.724 147.689 660.724 147.689V147.689Z" fill="white"/>
</mask>
<g mask="url(#mask22)">
<path fill-rule="evenodd" clip-rule="evenodd" d="M638.983 223.902C638.983 223.902 642.278 248.677 660.401 254.734C678.523 260.79 641.18 283.363 645.574 303.183C649.966 323.003 632.393 243.722 632.393 243.722L638.983 223.902Z" fill="#562424"/>
</g>
<mask id="mask23" mask-type="alpha" maskUnits="userSpaceOnUse" x="502" y="70" width="126" height="138">
<path fill-rule="evenodd" clip-rule="evenodd" d="M509.986 70.8068C506.886 71.9888 510.003 80.2899 512.321 85.4958V85.4958C510.418 81.7708 507.6 77.0114 505.857 77.5477V77.5477C499.771 80.3742 522.3 125.274 520.42 126.474V126.474C519.512 127.053 516.949 123.781 513.905 120.509V120.509C510.642 117.002 506.824 113.494 503.901 114.732V114.732C498.25 117.124 513.682 137.781 524.115 142.782V142.782C527.621 144.463 531.027 144.593 534.006 144.03V144.03C546.914 156.143 601.572 207.395 602.148 207.203V207.203C602.455 207.1 610.528 203.864 616.479 197.986V197.986C623.14 191.406 627.739 182.112 627.739 182.112V182.112C627.739 182.112 562.683 140.851 546.573 129.762V129.762C544.789 113.584 528.166 83.8227 526.288 84.506V84.506C523.897 85.376 524.332 88.4205 524.332 88.4205V88.4205C524.332 88.4205 519.985 73.8513 516.942 74.5039V74.5039C515.823 74.7435 515.41 75.5139 515.335 76.3908V76.3908C514.587 73.79 513.214 70.6152 510.969 70.6152V70.6152C510.659 70.6152 510.331 70.6758 509.986 70.8068" fill="white"/>
</mask>
<g mask="url(#mask23)">
<path fill-rule="evenodd" clip-rule="evenodd" d="M532.878 94.3809C532.878 94.3809 539.702 114.18 537.143 123.397C534.584 132.614 547.551 129.883 561.712 139.954C575.873 150.025 535.437 94.3809 532.878 94.3809" fill="#9E574F"/>
</g>
<path fill-rule="evenodd" clip-rule="evenodd" d="M623.638 426.438C623.638 426.438 620.906 432.502 619.416 442.58C626.618 429.769 628.108 427.377 628.108 427.377L623.638 426.438Z" fill="#223C5B"/>
<path fill-rule="evenodd" clip-rule="evenodd" d="M643.746 90.6146C643.454 91.1558 642.842 91.4251 642.25 91.2749C607.741 82.5144 549.828 84.7155 549.242 84.7395C547.68 84.8085 546.355 83.5702 546.292 81.988C546.23 80.4057 547.45 79.0716 549.017 79.0088C551.443 78.9116 607.883 80.1823 643.163 89.1803C643.77 89.3347 644.063 90.0296 643.763 90.5842C643.758 90.5948 643.752 90.6047 643.746 90.6146" fill="#223C5B"/>
<path fill-rule="evenodd" clip-rule="evenodd" d="M609.466 104.468C578.413 100.778 553.353 101.655 553.105 101.663C551.527 101.714 550.22 100.487 550.163 98.9042C550.105 97.322 551.328 95.992 552.895 95.9335C553.148 95.923 579.257 95.763 609.776 102.931C611.303 103.291 609.578 104.481 609.466 104.468" fill="#223C5B"/>
<path fill-rule="evenodd" clip-rule="evenodd" d="M413.934 93.1493C415.156 92.8018 442.938 80.2784 469.807 79.3432C471.379 79.2946 472.671 80.5202 472.725 82.0933C472.778 83.6656 471.559 84.9857 470.002 85.0393C443.806 85.952 414.508 94.1987 414.215 94.2818C413.96 94.3544 412.434 93.5749 413.934 93.1493" fill="#223C5B"/>
<path fill-rule="evenodd" clip-rule="evenodd" d="M447.518 102.407C447.924 102.27 457.052 96.5605 469.086 95.8071C470.641 95.7098 471.826 97.2519 471.734 98.8229C471.64 100.394 470.303 101.591 468.748 101.497C457.412 100.81 448.426 103.771 448.337 103.801C447.986 103.919 446.038 102.903 447.518 102.407" fill="#223C5B"/>
<path fill-rule="evenodd" clip-rule="evenodd" d="M686.106 572.781C673.634 553.098 676.609 493.571 692.796 470.352C708.984 447.131 733.178 438.372 797.671 436.355C862.164 434.34 877.258 406.847 888.385 426.874C899.512 446.901 881.024 555.557 883.826 588.972C886.629 622.387 698.578 592.465 686.106 572.781" fill="#4476B2"/>
<mask id="mask24" mask-type="alpha" maskUnits="userSpaceOnUse" x="678" y="419" width="214" height="185">
<path fill-rule="evenodd" clip-rule="evenodd" d="M797.577 436.156C733.06 438.173 708.856 446.937 692.662 470.169V470.169C676.468 493.399 673.492 552.953 685.969 572.647V572.647C698.446 592.341 886.571 622.276 883.768 588.846V588.846C880.964 555.415 899.459 446.707 888.328 426.671V426.671C885.385 421.372 882.164 419.398 877.825 419.398V419.398C865.755 419.4 845.033 434.673 797.577 436.156V436.156Z" fill="white"/>
</mask>
<g mask="url(#mask24)">
<path fill-rule="evenodd" clip-rule="evenodd" d="M706.97 454.703C706.97 454.703 727.103 443.347 753.016 444.363C778.93 445.378 809.985 451.503 833.729 445.467C865.084 437.496 880.767 415.49 889.877 432.167L901.061 399.893L698.394 424.92L706.97 454.703Z" fill="#2D4E76"/>
</g>
<path fill-rule="evenodd" clip-rule="evenodd" d="M0 74.6336C0 102.045 22.2184 124.267 49.6253 124.267C77.0323 124.267 99.2507 102.045 99.2507 74.6336C99.2507 47.2215 77.0323 25 49.6253 25C22.2184 25 0 47.2215 0 74.6336" fill="#ADC6E0"/>
<path fill-rule="evenodd" clip-rule="evenodd" d="M2.50867 74.6341C2.50867 100.66 23.6034 121.758 49.6251 121.758C75.6473 121.758 96.7421 100.66 96.7421 74.6341C96.7421 48.6074 75.6473 27.5098 49.6251 27.5098C23.6034 27.5098 2.50867 48.6074 2.50867 74.6341" fill="#F2F5FE"/>
<path fill-rule="evenodd" clip-rule="evenodd" d="M48.5059 42.248H50.6704V35.2402H48.5059V42.248Z" fill="#ADC6E0"/>
<path fill-rule="evenodd" clip-rule="evenodd" d="M48.5059 113.687H50.6704V106.678H48.5059V113.687Z" fill="#ADC6E0"/>
<path fill-rule="evenodd" clip-rule="evenodd" d="M10.3702 75.5457H17.3792V73.3809H10.3702V75.5457Z" fill="#ADC6E0"/>
<path fill-rule="evenodd" clip-rule="evenodd" d="M81.797 75.5457H88.8061V73.3809H81.797V75.5457Z" fill="#ADC6E0"/>
<path fill-rule="evenodd" clip-rule="evenodd" d="M22.6223 45.9629L21.0911 47.4934L26.0477 52.4492L27.5783 50.9187L22.6223 45.9629Z" fill="#ADC6E0"/>
<path fill-rule="evenodd" clip-rule="evenodd" d="M73.1281 96.4766L71.5975 98.0074L76.5535 102.964L78.0846 101.433L73.1281 96.4766Z" fill="#ADC6E0"/>
<path fill-rule="evenodd" clip-rule="evenodd" d="M21.0913 101.433L22.6225 102.964L27.5779 98.0074L26.0479 96.4766L21.0913 101.433Z" fill="#ADC6E0"/>
<path fill-rule="evenodd" clip-rule="evenodd" d="M71.5978 50.9187L73.1283 52.4492L78.0843 47.4934L76.5537 45.9629L71.5978 50.9187Z" fill="#ADC6E0"/>
<path fill-rule="evenodd" clip-rule="evenodd" d="M53.9682 74.4119C53.9682 72.0776 52.0764 70.1855 49.7426 70.1855C47.4087 70.1855 45.517 72.0776 45.517 74.4119C45.517 76.7462 47.4087 78.6382 49.7426 78.6382C52.0764 78.6382 53.9682 76.7462 53.9682 74.4119" fill="#ADC6E0"/>
<path fill-rule="evenodd" clip-rule="evenodd" d="M59.5358 46.0229L56.3559 45.1465L48.1946 74.7618L51.3745 75.6382L59.5358 46.0229Z" fill="#ADC6E0"/>
<path fill-rule="evenodd" clip-rule="evenodd" d="M66.7532 83.2298L68.0037 80.1774L49.7109 72.6797L48.4604 75.7321L66.7532 83.2298Z" fill="#ADC6E0"/>
</svg>
